<?xml version="1.0" standalone="no"?>
<!DOCTYPE svg PUBLIC "-//W3C//DTD SVG 1.1//EN" "http://www.w3.org/Graphics/SVG/1.1/DTD/svg11.dtd" >
<svg xmlns="http://www.w3.org/2000/svg">
<metadata></metadata>
<defs>
<font id="scalabold" horiz-adv-x="512" >
<font-face units-per-em="2048" ascent="1638" descent="-410" />
<missing-glyph horiz-adv-x="500" />
<glyph horiz-adv-x="2048" />
<glyph horiz-adv-x="2048" />
<glyph unicode="&#xd;" horiz-adv-x="2048" />
<glyph unicode=" " />
<glyph unicode="!" horiz-adv-x="540" d="M135 1509h273l-70 -1116h-125zM154 94q0 47 34.5 82t81.5 35t82 -35t35 -82t-35 -82t-82 -35t-81.5 35t-34.5 82z" />
<glyph unicode="&#x22;" horiz-adv-x="837" d="M166 885v463h172v-463h-172zM496 885v463h170v-463h-170z" />
<glyph unicode="#" horiz-adv-x="1126" d="M6 420l29 151h221l45 234h-221l29 149h223l78 394h155l-76 -394h259l75 394h162l-76 -394h211l-28 -149h-213l-43 -234h215l-29 -151h-217l-82 -420h-162l82 420h-260l-82 -420h-160l84 420h-219zM416 571h256l47 234h-260z" />
<glyph unicode="$" horiz-adv-x="1112" d="M82 92l131 209q68 -84 106 -117.5t125 -87.5l78 6v467q-19 13 -45.5 29.5t-30.5 19.5q-164 106 -210.5 144.5t-85.5 99.5q-44 68 -44 162q0 148 114 245t302 111v119h94v-117q166 -9 229 -24t154 -68l-137 -194q-59 74 -93 103.5t-110 70.5l-43 -6v-439q30 -20 105 -65 q140 -87 202 -142t93 -118q33 -68 33 -138q0 -160 -120.5 -265.5t-312.5 -116.5v-119h-94v112q-183 12 -259.5 33t-180.5 86zM375 1081q0 -59 29 -98t118 -100v372q-70 -12 -108.5 -57.5t-38.5 -116.5zM616 113q88 32 123 72.5t35 109.5q0 72 -36 123t-122 100v-405z" />
<glyph unicode="%" horiz-adv-x="1740" d="M70 1014q0 149 105 254.5t253 105.5q149 0 253.5 -105.5t104.5 -254.5t-104.5 -254t-253.5 -105q-148 0 -253 105t-105 254zM209 -94l1145 1501h194l-1179 -1501h-160zM227 1014q0 -83 59 -142t142 -59q84 0 142.5 58.5t58.5 142.5t-58.5 142t-142.5 58q-83 0 -142 -58.5 t-59 -141.5zM954 332q0 149 105 253.5t254 104.5q148 0 253 -104.5t105 -253.5q0 -148 -105 -253.5t-253 -105.5q-149 0 -254 105.5t-105 253.5zM1112 332q0 -84 58.5 -142.5t142.5 -58.5q83 0 141.5 59t58.5 142t-58.5 141.5t-141.5 58.5q-85 0 -143 -58t-58 -142z" />
<glyph unicode="&#x26;" horiz-adv-x="1439" d="M33 356q0 250 332 439l-72 104q-62 90 -84.5 145t-22.5 119q0 158 118 254t312 96q155 0 255 -76.5t100 -195.5q0 -67 -37 -126.5t-117 -121.5l-106 -82l-64 84q64 45 91.5 97.5t27.5 126.5q0 86 -44 136t-118 50q-78 0 -126 -51.5t-48 -136.5q0 -58 21 -111t73 -123 l408 -563q44 65 65.5 106t59.5 136h-172v86h463v-86h-162q-37 -113 -77 -188t-112 -169q115 -149 197 -149q33 0 62 25t87 104l97 -80q-99 -149 -152.5 -190.5t-148.5 -41.5q-91 0 -157.5 34t-135.5 116q-106 -88 -181.5 -119t-183.5 -31q-201 0 -324.5 106t-123.5 277z M295 393q0 -125 64 -202.5t167 -77.5q131 0 244 110l-338 471q-137 -125 -137 -301z" />
<glyph unicode="'" d="M172 885v463h170v-463h-170z" />
<glyph unicode="(" horiz-adv-x="632" d="M141 414q0 172 34 328t108 331q44 103 72 154t83 125h158q-94 -182 -152.5 -442t-58.5 -496t58.5 -497t152.5 -441h-158q-54 74 -82.5 124.5t-72.5 153.5q-74 175 -108 331.5t-34 328.5z" />
<glyph unicode=")" horiz-adv-x="632" d="M37 -524q92 180 150.5 441t58.5 497q0 237 -58 497t-151 441h158q53 -72 80.5 -122.5t72.5 -156.5q75 -172 108 -328.5t33 -330.5t-33 -331t-108 -329q-46 -106 -73 -156t-80 -122h-158z" />
<glyph unicode="*" horiz-adv-x="1024" d="M43 983l68 209l327 -180l-24 -76zM154 637l272 256l66 -49l-158 -338zM403 1403h222l-70 -367h-82zM532 846l66 49l272 -256l-178 -131zM586 1012l327 178l68 -209l-371 -47z" />
<glyph unicode="+" horiz-adv-x="1126" d="M78 401v168h401v402h168v-402h402v-168h-402v-401h-168v401h-401z" />
<glyph unicode="," d="M94 -207q72 58 102.5 102.5t30.5 88.5q0 43 -24.5 69t-81.5 43q26 65 57.5 91t83.5 26q64 0 100.5 -38.5t36.5 -104.5q0 -170 -221 -357z" />
<glyph unicode="-" horiz-adv-x="563" d="M66 354v230h426v-230h-426z" />
<glyph unicode="." d="M119 115q0 57 40 97t97 40t97 -40t40 -97t-40 -97.5t-97 -40.5t-97 40.5t-40 97.5z" />
<glyph unicode="/" horiz-adv-x="837" d="M84 -498l516 1850h154l-514 -1850h-156z" />
<glyph unicode="0" horiz-adv-x="1234" d="M121 471q0 136 66 251t180.5 182t250.5 67q135 0 249.5 -67t181.5 -182t67 -251q0 -135 -67 -249.5t-181.5 -181.5t-249.5 -67q-136 0 -250.5 67t-180.5 181.5t-66 249.5zM307 471q0 -128 91 -218.5t220 -90.5t219.5 90.5t90.5 218.5q0 129 -90.5 220t-219.5 91t-220 -91 t-91 -220z" />
<glyph unicode="1" horiz-adv-x="792" d="M111 0v86h165v772h-165v86h571v-86h-166v-772h166v-86h-571z" />
<glyph unicode="2" horiz-adv-x="1081" d="M94 0v100l336 262q182 141 182 304q0 82 -39.5 132t-103.5 50t-125 -36t-141 -120l-76 74q103 117 187.5 161t207.5 44q157 0 251.5 -75t94.5 -200q0 -91 -45.5 -156.5t-179.5 -166.5l-293 -221h502v184h119v-336h-877z" />
<glyph unicode="3" horiz-adv-x="882" d="M68 -408q218 17 344.5 127.5t126.5 282.5q0 123 -64.5 200t-167.5 77h-90v67q133 101 184.5 181.5t51.5 187.5q0 65 -27.5 100t-79.5 35q-46 0 -87 -27t-107 -102l-70 76q86 98 158.5 136t175.5 38q132 0 216.5 -72t84.5 -184q0 -189 -275 -314q77 -4 120 -19.5t93 -55.5 q133 -109 133 -289q0 -177 -134 -320.5t-355 -205.5q-101 -26 -231 -35v116z" />
<glyph unicode="4" horiz-adv-x="1124" d="M16 0v37l738 934h94v-819h100l74 2v-154h-174v-498h-240v498h-592zM264 152h344v444z" />
<glyph unicode="5" horiz-adv-x="884" d="M102 -401q101 14 153 32t110 60q83 60 121 137t38 184q0 114 -45 199t-127 123q-43 21 -79 29.5t-123 19.5v561h509v100h105v-270h-510v-262q129 -9 218 -39.5t165 -91.5q71 -57 112.5 -147t41.5 -185q0 -118 -70.5 -236.5t-190.5 -201.5q-96 -67 -182 -94.5t-246 -40.5 v123z" />
<glyph unicode="6" horiz-adv-x="1249" d="M102 586q0 195 74 373t207.5 309t304.5 192q91 32 162 42.5t205 10.5v-102q-114 -6 -175.5 -19t-131.5 -46q-131 -62 -205 -162q-86 -113 -132 -272t-46 -337q0 -220 73 -352.5t193 -132.5q104 0 179 99.5t75 238.5q0 140 -83 226.5t-218 86.5h-88l12 101q90 20 154 20 q205 0 344 -122t139 -302q0 -125 -70 -232t-190.5 -170t-261.5 -63q-230 0 -375.5 171t-145.5 442z" />
<glyph unicode="7" horiz-adv-x="1001" d="M51 578v426h133v-60h772v-78l-376 -827q-21 -46 -105 -207q-60 -109 -119 -203q-24 -42 -104 -153l-189 114q82 73 125.5 119.5t96.5 116.5q47 64 98 146.5t76 138.5l289 639h-564v-172h-133z" />
<glyph unicode="8" horiz-adv-x="1126" d="M94 348q0 93 44.5 169.5t146.5 160.5l135 110l-133 117q-142 124 -142 283q0 146 112 235.5t296 89.5q175 0 282 -88t107 -233q0 -77 -32.5 -132t-121.5 -136l-81 -74l167 -145q83 -72 129 -157.5t46 -170.5q0 -173 -144 -288.5t-362 -115.5q-206 0 -327.5 101.5 t-121.5 273.5zM283 348q0 -123 69.5 -193.5t192.5 -70.5q114 0 184 68.5t70 177.5q0 61 -27.5 121t-73.5 100l-178 154l-121 -107q-116 -104 -116 -250zM379 1217q0 -56 23 -98.5t77 -86.5l129 -104l54 55q96 104 96 219q0 94 -53.5 151.5t-141.5 57.5q-80 0 -132 -54.5 t-52 -139.5z" />
<glyph unicode="9" horiz-adv-x="1249" d="M100 504q0 125 71 232t191.5 170t260.5 63q232 0 376 -170t144 -445q0 -191 -68 -343t-213 -287q-147 -135 -305 -191q-88 -32 -159.5 -42.5t-207.5 -10.5v102q115 6 177 19.5t131 46.5q121 60 204 162q93 108 136 242t43 310q0 224 -72.5 358t-194.5 134 q-104 0 -179 -100t-75 -240q0 -139 84 -226t218 -87h88l-13 -99q-90 -20 -151 -20q-207 0 -346.5 121t-139.5 301z" />
<glyph unicode=":" d="M117 115q0 57 40 97t97 40t98 -40t41 -97t-41 -97.5t-98 -40.5t-97 40.5t-40 97.5zM117 815q0 57 40 97t97 40t97 -40t40 -97t-40 -97t-97 -40t-97 40t-40 97z" />
<glyph unicode=";" d="M84 -207q70 58 100.5 102.5t30.5 88.5q0 43 -23.5 69t-80.5 43q25 64 56.5 90.5t84.5 26.5q63 0 100 -38.5t37 -104.5q0 -170 -221 -357zM125 815q0 57 40 97t97 40t97 -40t40 -97t-40 -97t-97 -40t-97 40t-40 97z" />
<glyph unicode="&#x3c;" horiz-adv-x="1126" d="M80 430v111l967 430v-164l-728 -322l728 -321v-164z" />
<glyph unicode="=" horiz-adv-x="1126" d="M51 223v168h1024v-168h-1024zM51 557v168h1024v-168h-1024z" />
<glyph unicode="&#x3e;" horiz-adv-x="1126" d="M80 0v164l727 321l-727 322v164l967 -430v-111z" />
<glyph unicode="?" horiz-adv-x="837" d="M158 1245l90 262q100 -26 153.5 -52t120.5 -81q106 -90 167 -214.5t61 -254.5q0 -147 -77 -236t-204 -89h-96l-37 -187h-88v391h340q6 33 6 66q0 98 -46 180.5t-126 126.5q-62 34 -106 48.5t-158 39.5zM172 94q0 49 34 84t81 35q49 0 84 -34t35 -81q2 -50 -33 -85.5 t-84 -35.5t-83 34.5t-34 82.5z" />
<glyph unicode="@" horiz-adv-x="2048" d="M203 446q0 187 64 347.5t177 274t274 177.5t349 64q185 0 325 -56.5t255 -177.5q106 -113 154 -237t48 -289q0 -172 -43.5 -278.5t-146.5 -188.5q-130 -100 -311 -100q-114 0 -167 47t-53 149q0 47 15 113l22 88q-70 -113 -122 -175t-123 -118q-52 -39 -110 -64.5 t-97 -25.5q-54 0 -88.5 85t-34.5 216q0 191 64.5 348t176.5 246.5t248 89.5q53 0 85.5 -9.5t84.5 -41.5l62 51h80l-117 -727q-8 -49 -8 -86q0 -40 33 -63t90 -23q89 0 175.5 50.5t127.5 127.5q61 110 61 297q0 136 -39.5 238t-130.5 202q-102 115 -220 164t-286 49 q-352 0 -563 -203.5t-211 -543.5q0 -194 59 -326t191 -237q99 -77 199 -108.5t249 -31.5q108 0 178.5 15t157.5 57l41 -90q-96 -44 -177 -62t-189 -18q-172 0 -292.5 40t-238.5 136q-144 116 -211 264t-67 344zM752 342q0 -172 82 -172q41 0 103.5 56.5t127.5 152.5 q64 93 99.5 187t60.5 235q-41 53 -76.5 74.5t-79.5 21.5q-81 0 -155 -78t-118 -206.5t-44 -270.5z" />
<glyph unicode="A" horiz-adv-x="1376" d="M0 0v86h127l528 1309h125l508 -1309h86v-86h-500v86h144l-127 332h-498l-133 -332h164v-86h-424zM442 543h402l-195 512z" />
<glyph unicode="B" horiz-adv-x="1300" d="M102 0v86h156v1180h-156v86h658q187 0 288 -84.5t101 -241.5q0 -149 -91 -229.5t-261 -83.5q201 -6 310.5 -98.5t109.5 -258.5q0 -169 -110 -262.5t-308 -93.5h-697zM522 111h142q280 0 280 260q0 124 -74.5 199t-197.5 75h-150v-534zM522 758h146q89 0 149 71.5 t60 174.5q0 107 -58 171t-155 64h-142v-481z" />
<glyph unicode="C" horiz-adv-x="1366" d="M86 672q0 149 55 279.5t150 224t228.5 147t285.5 53.5q100 0 177.5 -15.5t166.5 -53.5v86h113v-367h-113v131q-87 61 -148 83t-143 22q-214 0 -348.5 -161.5t-134.5 -416.5q0 -164 66 -299.5t181.5 -213t254.5 -77.5q76 0 138 18.5t134 63.5v156h115v-273 q-133 -48 -228.5 -67t-210.5 -19q-160 0 -297.5 52t-234.5 144t-152 222t-55 281z" />
<glyph unicode="D" horiz-adv-x="1515" d="M102 0v86h156v1180h-156v86h639q191 0 349 -89t249 -243.5t91 -341.5q0 -141 -56 -270t-160 -230q-97 -92 -211 -135t-264 -43h-637zM522 113h166q127 0 231 73.5t163 203t59 288.5q0 148 -60.5 277t-163.5 205.5t-221 76.5h-174v-1124z" />
<glyph unicode="E" horiz-adv-x="1189" d="M102 0v86h156v1180h-156v86h844v57h111v-326h-109v148h-426v-483h328v139l111 2v-404l-111 -2v144h-328v-506h445v151h110v-272h-975z" />
<glyph unicode="F" horiz-adv-x="1169" d="M102 0v86h156v1180h-156v86h844v57h111v-326h-109v148h-426v-483h328v139l111 2v-404l-111 -2v144h-328v-541h137v-86h-557z" />
<glyph unicode="G" horiz-adv-x="1525" d="M86 678q0 223 127 406t328 249q140 45 303 45q94 0 164 -13t170 -48v76h112v-365h-112v156q-79 42 -149 60t-159 18q-137 0 -251 -77t-179 -211t-65 -296q0 -156 70.5 -290t191 -213t260.5 -79q67 0 158 29v340h-176v86h594v-86h-154v-414q-154 -42 -259.5 -60 t-209.5 -18q-166 0 -308.5 52.5t-242.5 145t-156.5 223.5t-56.5 284z" />
<glyph unicode="H" horiz-adv-x="1710" d="M102 0v86h156v1180h-156v86h574v-86h-154v-521h666v521h-154v86h574v-86h-156v-1180h156v-86h-574v86h154v539h-666v-539h154v-86h-574z" />
<glyph unicode="I" horiz-adv-x="761" d="M94 0v86h156v1180h-156v86h574v-86h-154v-1180h154v-86h-574z" />
<glyph unicode="J" horiz-adv-x="745" d="M61 -383q92 88 131 184t39 234v158v1073h-153v86h573v-86h-155v-1303q-73 -155 -134.5 -231.5t-214.5 -204.5z" />
<glyph unicode="K" horiz-adv-x="1337" d="M102 0v86h156v1178l-156 2v86h574v-86h-154v-1180h154v-86h-574zM541 668l444 598h-178v86h491v-86h-157l-367 -490l506 -690h98v-86h-346z" />
<glyph unicode="L" horiz-adv-x="1087" d="M102 0v86h156v1180h-156v86h574v-86h-154v-1145h436v151h111v-272h-967z" />
<glyph unicode="M" horiz-adv-x="1845" d="M78 0v86h172v1180h-172v86h362l486 -953l428 953h405v-86h-172v-1180h172v-86h-608v86h172v885l-451 -991l-493 972v-866h172v-86h-473z" />
<glyph unicode="N" horiz-adv-x="1509" d="M68 1266v86h407l664 -944v858h-162v86h463v-86h-172v-1289h-144l-712 1004v-895h161v-86h-462v86h170v1075l-66 105h-147z" />
<glyph unicode="O" horiz-adv-x="1521" d="M86 676q0 144 53 274t143 223t215.5 148t264.5 55t264.5 -55t216 -148t144 -223t53.5 -274t-53.5 -274.5t-144 -224t-216 -149t-264.5 -55.5t-264.5 55.5t-215.5 149t-143 224t-53 274.5zM375 676q0 -153 53.5 -288.5t143 -216.5t190.5 -81q102 0 192 81t143.5 216.5 t53.5 288.5q0 152 -53.5 287t-144 216t-191.5 81t-190.5 -81t-143 -216t-53.5 -287z" />
<glyph unicode="P" horiz-adv-x="1228" d="M102 0v86h156v1180h-156v86h621q191 0 305.5 -106t114.5 -283q0 -110 -58.5 -204t-159 -149t-218.5 -55q-47 0 -111 12v101q27 -6 55 -6q104 0 160.5 73t56.5 209q0 145 -56.5 219t-166.5 74h-123v-1151h174v-86h-594z" />
<glyph unicode="Q" horiz-adv-x="1554" d="M86 674q0 193 90 354.5t245.5 254.5t342.5 93q137 0 262 -55t215 -148.5t143.5 -223.5t53.5 -273q0 -149 -61.5 -290t-169 -242t-236.5 -136q107 -115 198.5 -178t151.5 -63q39 0 133 69l64 -96l-308 -225v2q-105 56 -161 94.5t-140 109.5q-71 61 -122 112.5t-138 150.5 q-163 40 -230.5 77t-152.5 134q-85 100 -132.5 226t-47.5 253zM375 676q0 -151 53.5 -286.5t143 -217.5t188.5 -82q102 0 192 81t143.5 216.5t53.5 288.5q0 111 -32 218.5t-84.5 187.5t-122.5 129t-142 49q-104 0 -194.5 -80t-144.5 -215t-54 -289z" />
<glyph unicode="R" horiz-adv-x="1339" d="M102 0v86h156v1180h-156v86h605q133 0 213 -23t135 -78q100 -100 100 -264q0 -274 -287 -362l291 -447q35 -53 58.5 -71.5t54.5 -18.5h84v-88h-260q-91 0 -124.5 19.5t-86.5 101.5l-307 481h-56v-516h154v-86h-574zM522 705h121q106 0 172 76t66 198q0 123 -60.5 190.5 t-169.5 67.5h-129v-532z" />
<glyph unicode="S" horiz-adv-x="1150" d="M166 1001q0 169 114.5 272t301.5 103q115 0 221 -45v62h110v-351h-110v142q-66 42 -113.5 59t-103.5 17q-79 0 -134 -50.5t-55 -122.5q0 -62 48.5 -113.5t195.5 -144.5q36 -24 79 -51.5t65 -41.5t32 -21q73 -51 125 -133q57 -92 57 -211q0 -175 -114.5 -286.5 t-294.5 -111.5q-162 0 -299 80v-71h-113v368h113v-151q69 -56 128 -78.5t134 -22.5q95 0 157 51.5t62 131.5q0 69 -53.5 128t-196.5 152q-146 92 -191.5 126.5t-86.5 82.5q-78 90 -78 231z" />
<glyph unicode="T" horiz-adv-x="1228" d="M16 1061v348h113v-57h971v57h112v-348h-112v170h-352v-1145h196v-86h-659v86h198v1145h-354v-170h-113z" />
<glyph unicode="U" horiz-adv-x="1597" d="M102 1266v86h574v-86h-154v-764q0 -155 32 -235.5t110 -121.5q76 -39 170 -39q184 0 286.5 104t102.5 292v762h-170v88h475v-86h-172v-770q0 -174 -62 -286t-192 -173q-140 -64 -297 -64q-249 0 -398 126.5t-149 338.5v828h-156z" />
<glyph unicode="V" horiz-adv-x="1353" d="M-16 1266v86h557v-86h-174l366 -940l369 940h-148v86h416v-86h-119l-508 -1301h-131l-508 1301h-120z" />
<glyph unicode="W" horiz-adv-x="1929" d="M-16 1266v86h497v-86h-114l366 -940l166 417l-205 523h-114v86h790v-86h-145l-142 -365l236 -590l373 955h-148v86h402v-86h-103l-508 -1301h-131l-231 588l-230 -588h-131l-508 1301h-120zM940 1266l80 -205l82 205h-162z" />
<glyph unicode="X" horiz-adv-x="1351" d="M-16 0v86h155l414 559l-391 621h-158v86h590v-86h-135l256 -406l301 406h-180v86h514v-86h-162l-395 -531l413 -649h162v-86h-592v86h133l-274 436l-326 -436h189v-86h-514z" />
<glyph unicode="Y" horiz-adv-x="1253" d="M-16 1266v86h573v-86h-151l290 -449l273 449h-174v86h477v-86h-148l-342 -561v-619h156v-86h-573v86h153v565l-405 615h-129z" />
<glyph unicode="Z" horiz-adv-x="1368" d="M121 0v61l762 1170h-652v-164h-110v342h110v-57h975v-64l-755 -1167h686v211h110v-332h-1126z" />
<glyph unicode="[" d="M106 -498v1850h365v-127h-174v-1596h174v-127h-365z" />
<glyph unicode="\" horiz-adv-x="837" d="M84 1352h156l514 -1850h-154z" />
<glyph unicode="]" d="M41 -387h174v1628h-174v111h365v-1850h-365v111z" />
<glyph unicode="^" horiz-adv-x="692" d="M61 1083l230 338h125l219 -338h-107l-174 181l-176 -181h-117z" />
<glyph unicode="_" horiz-adv-x="1024" d="M0 0h1024v-168h-1024v168z" />
<glyph unicode="`" horiz-adv-x="528" d="M27 1413h223l244 -330h-144z" />
<glyph unicode="a" horiz-adv-x="935" d="M35 211q0 91 51.5 153.5t146.5 84.5l299 67v217q0 78 -22.5 109.5t-77.5 31.5q-47 0 -102 -26v-103l-234 -57q-16 29 -16 57q0 94 97 150.5t257 56.5q165 0 251.5 -57.5t86.5 -167.5v-621h123v-67l-137 -43q-46 -14 -96 -14q-57 0 -86 26.5t-37 85.5q-51 -66 -107 -93.5 t-139 -27.5q-118 0 -188 64.5t-70 173.5zM268 233q0 -58 29.5 -95.5t75.5 -37.5q37 0 72.5 19.5t86.5 66.5v226l-264 -62v-117z" />
<glyph unicode="b" horiz-adv-x="1077" d="M4 1364v66l293 79h90v-1415q50 -28 92 -28q122 0 204.5 118.5t82.5 294.5q0 164 -59.5 263.5t-157.5 99.5h-86v82q90 28 170 28q177 0 285 -120t108 -316q0 -108 -33.5 -210.5t-93.5 -170.5q-72 -84 -174 -123t-250 -39q-74 0 -135.5 8t-192.5 35v1348h-143z" />
<glyph unicode="c" horiz-adv-x="880" d="M43 449q0 215 140 359t349 144q107 0 179 -21t145 -73l-129 -129q-57 54 -88 76.5t-100 56.5q-240 -102 -240 -377q0 -154 87.5 -274.5t199.5 -120.5q49 0 93.5 17t123.5 65l53 -90q-116 -60 -195.5 -84.5t-162.5 -24.5q-199 0 -327 134.5t-128 341.5z" />
<glyph unicode="d" horiz-adv-x="1089" d="M43 442q0 142 64.5 259t178 184t251.5 67q45 0 73 -4.5t76 -21.5v438h-143v66l295 79h90v-1384h143v-68l-295 -77h-90v118q-72 -74 -123 -99.5t-129 -25.5q-170 0 -280.5 133t-110.5 336zM303 471q0 -148 63 -252t152 -104q78 0 168 90v497q0 81 -27 118.5t-84 37.5 q-115 0 -193.5 -111.5t-78.5 -275.5z" />
<glyph unicode="e" horiz-adv-x="944" d="M43 459q0 223 128.5 358t340.5 135q179 0 287 -101.5t108 -270.5v-78h-612q0 -190 80.5 -301t218.5 -111q57 0 106 20t168 91l47 -90q-152 -85 -230.5 -111.5t-184.5 -26.5q-205 0 -331 134t-126 352zM297 606h356v49q0 92 -40 150.5t-103 58.5q-82 0 -141 -70.5 t-72 -187.5z" />
<glyph unicode="f" horiz-adv-x="667" d="M37 803v65l143 45v168q0 123 39.5 202.5t134.5 146.5q119 83 283 83q92 0 161.5 -17.5t143.5 -59.5l-139 -172q-68 62 -103.5 88t-113.5 69q-41 -11 -65 -21t-44.5 -29.5t-30 -41t-16.5 -65t-8.5 -92t-1.5 -130.5v-135h211v-104h-211v-717h170v-86h-531v86h121v717h-143z " />
<glyph unicode="g" horiz-adv-x="1038" d="M31 47q70 99 109.5 144t113.5 110q-176 109 -176 291q0 165 107.5 262.5t289.5 97.5q151 0 270 -61h140l145 35v-140h-172q34 -40 48 -80t14 -100q0 -166 -110 -262t-300 -96q-61 0 -152 16q-90 -90 -90 -131q0 -17 14 -27t37 -10h512q193 0 193 -190 q0 -183 -152.5 -306.5t-379.5 -123.5q-153 0 -261 49t-196 158q37 70 59 103t70 87q31 35 63 72q-67 15 -107.5 36t-88.5 66zM287 -236q0 -85 66 -139.5t169 -54.5q120 0 205.5 76.5t85.5 183.5q0 47 -22.5 66.5t-77.5 19.5h-371q-32 -53 -43.5 -85.5t-11.5 -66.5zM328 602 q0 -121 46 -191.5t126 -70.5t126 70.5t46 191.5t-46 191.5t-126 70.5t-126 -70.5t-46 -191.5z" />
<glyph unicode="h" horiz-adv-x="1163" d="M16 1364v66l295 79h90v-729q100 101 168.5 136.5t165.5 35.5q129 0 197.5 -66t68.5 -190v-610h121v-86h-481v86h121v571q0 92 -25 127t-88 35q-60 0 -103 -25.5t-145 -121.5v-586h121v-86h-481v86h121v1278h-146z" />
<glyph unicode="i" horiz-adv-x="577" d="M45 803v65l295 80h80v-862h121v-86h-482v86h121v717h-135zM145 1300q0 60 43 103t103 43t102.5 -43t42.5 -103q0 -61 -42.5 -103t-102.5 -42t-103 42t-43 103z" />
<glyph unicode="j" horiz-adv-x="563" d="M57 803v65l295 80h80v-1059q-68 -132 -111 -192.5t-184 -220.5l-76 65q87 109 109.5 175.5t22.5 215.5v871h-136zM160 1300q0 60 42 103t103 43q60 0 103 -43t43 -103q0 -61 -43 -103t-103 -42q-61 0 -103 41.5t-42 103.5z" />
<glyph unicode="k" horiz-adv-x="1040" d="M16 1374v56l295 79h90v-1423h121v-86h-481v86h121v1288h-146zM406 467l319 375h-123v86h408v-86h-113l-258 -291l313 -465h86v-86h-325z" />
<glyph unicode="l" horiz-adv-x="546" d="M16 1364v66l295 79h82v-1423h121v-86h-481v86h121v1278h-138z" />
<glyph unicode="m" horiz-adv-x="1808" d="M45 803v65l295 80h90v-162q95 95 166 130.5t162 35.5q117 0 180.5 -46.5t89.5 -149.5q89 109 166 152.5t180 43.5q122 0 197.5 -70t75.5 -184v-612h118v-86h-479v86h119v571q0 86 -25 123t-84 37q-61 0 -115 -34.5t-143 -131.5v-565h111v-86h-463v86h111v569 q0 85 -28 123.5t-89 38.5q-63 0 -118 -32.5t-132 -118.5v-580h119v-86h-481v86h120v717h-143z" />
<glyph unicode="n" horiz-adv-x="1189" d="M45 803v65l295 80h90v-168q100 102 168 137t164 35q130 0 198 -65.5t68 -190.5v-610h121v-86h-481v86h120v571q0 92 -23.5 127t-86.5 35q-60 0 -104.5 -26t-143.5 -121v-586h119v-86h-481v86h120v717h-143z" />
<glyph unicode="o" horiz-adv-x="1034" d="M43 463q0 213 133.5 351t339.5 138t340.5 -138t134.5 -351q0 -212 -134.5 -351t-340.5 -139q-205 0 -339 139t-134 351zM303 463q0 -170 59.5 -278.5t153.5 -108.5t153.5 108.5t59.5 278.5q0 172 -59.5 280.5t-153.5 108.5t-153.5 -108.5t-59.5 -280.5z" />
<glyph unicode="p" horiz-adv-x="1101" d="M37 813v57l295 78h90v-90q58 51 117 71.5t141 20.5q169 0 270 -122t101 -326q0 -234 -138.5 -381.5t-359.5 -147.5q-61 0 -131 23v-408h135v-86h-496v86h121v1225h-145zM422 233q0 -109 19.5 -141.5t84.5 -32.5q115 0 188.5 117.5t73.5 302.5q0 154 -57 249t-151 95 q-37 0 -70.5 -14.5t-87.5 -54.5v-521z" />
<glyph unicode="q" horiz-adv-x="1067" d="M51 430q0 161 80 299q70 118 180 170.5t285 52.5q96 0 172.5 -13t175.5 -46v-1305h103v-86h-504v86h162v1254q-61 24 -113 24q-131 0 -205 -107t-74 -296q0 -183 54.5 -280t158.5 -97h99v-70q-128 -43 -195 -43q-164 0 -271.5 130t-107.5 327z" />
<glyph unicode="r" horiz-adv-x="772" d="M45 803v65l295 80h90v-157l47 51q55 61 95 85.5t83 24.5q50 0 70 -20l63 -55l-129 -179q-73 54 -102 54t-57 -22t-70 -77v-567h143v-86h-505v86h120v717h-143z" />
<glyph unicode="s" horiz-adv-x="862" d="M80 670q0 127 90 204.5t238 77.5q146 0 229 -69l12 73h107l-51 -294h-105q12 34 12 67q0 52 -62.5 93.5t-139.5 41.5q-67 0 -107.5 -31t-40.5 -83q0 -57 43.5 -90t206.5 -97q150 -60 209 -127t59 -178q0 -135 -85 -210t-240 -75q-174 0 -265 82v-73h-100v290h113v-55 q0 -62 73 -109t168 -47q73 0 116.5 29.5t43.5 79.5q0 62 -51 102t-201 97q-149 57 -210.5 125.5t-61.5 175.5z" />
<glyph unicode="t" horiz-adv-x="612" d="M18 803v65l136 35v293h233v-289h211v-104h-211v-582v-57q0 -20 17 -35.5t40 -15.5q30 0 54 9t71 38l43 -74q-79 -63 -132 -88t-113 -25q-95 0 -154 57.5t-59 149.5v623h-136z" />
<glyph unicode="u" horiz-adv-x="1167" d="M18 803v65l295 80h90v-669q0 -88 29 -128t92 -40q60 0 109 30.5t131 118.5v543h-105v74l271 71h74v-823h143v-68l-295 -73h-88v172q-103 -108 -171 -145.5t-161 -37.5q-132 0 -200 67t-68 198v565h-146z" />
<glyph unicode="v" horiz-adv-x="905" d="M0 842v86h397v-86h-88l207 -510l197 510h-123v86h315v-86h-90l-330 -869h-79l-351 869h-55z" />
<glyph unicode="w" horiz-adv-x="1445" d="M0 842v86h395v-86h-86l207 -506l150 383l-52 123h-104v86h428v-86h-88l211 -518l194 518h-122v86h313v-86h-90l-328 -869h-63l-248 615l-236 -615h-75l-351 869h-55z" />
<glyph unicode="x" horiz-adv-x="894" d="M0 0v86h88l258 336l-250 420h-76v86h431v-86h-84l133 -221l170 221h-84v86h295v-86h-88l-238 -312l264 -444h76v-86h-420v86h74l-148 244l-190 -244h106v-86h-317z" />
<glyph unicode="y" horiz-adv-x="907" d="M0 842v86h432v-86h-106l202 -496l193 496h-129v86h315v-86h-84l-342 -889q-84 -223 -190 -367q-16 -24 -88 -110l-135 141q87 54 128.5 88.5t86.5 91.5q41 54 65.5 100t57.5 132l-332 813h-74z" />
<glyph unicode="z" horiz-adv-x="960" d="M78 0v76l504 745h-387l-25 -159h-88l43 307h88l-6 -41h678v-62l-508 -762h416v148l88 -2v-250h-803z" />
<glyph unicode="{" horiz-adv-x="837" d="M90 475v74h76q75 0 116.5 62t41.5 177v463q0 273 266 273h168v-84h-80q-72 0 -111 -51.5t-39 -147.5v-467q0 -137 -40 -193t-150 -69q110 -15 150 -70t40 -192v-475q0 -97 39 -149t111 -52h80v-98h-168q-266 0 -266 274v486q0 115 -41.5 177t-116.5 62h-76z" />
<glyph unicode="|" d="M178 -524v2048h156v-2048h-156z" />
<glyph unicode="}" horiz-adv-x="837" d="M84 1425v99h170q266 0 266 -273v-485q0 -115 41.5 -177.5t116.5 -62.5h76v-73h-76q-75 0 -116.5 -62.5t-41.5 -177.5v-463q0 -272 -266 -272h-168v84h80q72 0 110.5 51t38.5 147v467q0 136 40.5 191.5t150.5 70.5q-110 15 -151.5 70.5t-41.5 190.5v477q0 97 -37.5 147.5 t-109.5 50.5h-82z" />
<glyph unicode="~" horiz-adv-x="929" d="M55 1141q73 87 133.5 124.5t126.5 37.5q63 0 97 -19l77 -49q55 -35 125 -35q51 0 76 12.5t78 63.5l57 -64q-73 -87 -132.5 -121t-139.5 -34q-91 0 -162 47q-55 36 -72.5 43.5t-46.5 7.5q-42 0 -77 -17.5t-78 -60.5z" />
<glyph unicode="&#xa1;" horiz-adv-x="540" d="M135 -487l70 1114h125l78 -1114h-273zM156 928q0 48 33.5 81t82.5 33q48 0 82.5 -33.5t34.5 -80.5q0 -49 -34.5 -83t-82.5 -34q-49 0 -82.5 33.5t-33.5 83.5z" />
<glyph unicode="&#xa2;" horiz-adv-x="907" d="M41 442q0 142 64.5 259t178 184t251.5 67h28l27 154h94l-29 -160q67 -10 107.5 -25.5t114.5 -58.5l-123 -147q-35 45 -56 63t-67 43l-135 -702q91 -13 104 -13q47 0 93 15.5t124 56.5l49 -90q-110 -68 -182.5 -91.5t-167.5 -23.5q-24 0 -47 4l-29 -153h-94l35 170 q-162 38 -251 155.5t-89 292.5zM289 467q0 -95 31 -177.5t88 -137.5l133 692q-252 -88 -252 -377z" />
<glyph unicode="&#xa3;" horiz-adv-x="1179" d="M-14 -463q0 58 63.5 108t171.5 76q41 84 84 240l62 227h-250l33 97l249 41l236 843q43 154 152 242t257 88q115 0 190 -44t75 -112q0 -67 -70 -104q-29 -16 -59 -16q-83 0 -107 96q-11 43 -22.5 61.5t-28.5 18.5q-39 0 -95 -86t-85 -191l-217 -796h391l-41 -138h-383 l-90 -299q-15 -50 -28.5 -76.5t-51.5 -80.5h10q65 0 117 -14t131 -54q75 -37 114.5 -50t75.5 -13q38 0 60 15t22 42q0 50 -80 133l185 119q49 -66 68.5 -109.5t19.5 -89.5q0 -107 -95 -170t-255 -63q-136 0 -222 55l-92 57q-51 32 -125 41q-80 -83 -150 -119t-153 -36 q-31 0 -49 16.5t-18 44.5z" />
<glyph unicode="&#xa4;" horiz-adv-x="1265" d="M37 803v61l141 47v121q0 186 128.5 304t328.5 118q160 0 276 -65q76 67 151 95.5t175 28.5q82 0 144.5 -18t158.5 -70l-133 -168q-68 63 -103.5 88.5t-115.5 65.5q-43 -8 -67 -15t-45.5 -25t-30.5 -38t-16 -65.5t-8 -94.5t-1 -137v-129h209l2 -104h-211v-717h170v-86 h-531v86h121v717h-362v-717h121v-86h-482v86h121v717h-141zM418 907h362v170q0 89 4 105q0 9 13 35q-66 57 -107 85.5t-104 61.5q-72 -20 -106 -55t-48 -105.5t-14 -212.5v-84z" />
<glyph unicode="&#xa5;" horiz-adv-x="1259" d="M16 1352h510v-86h-118l288 -453l275 453h-137v86h409v-86h-117l-346 -561h299v-97h-303v-176h303v-102h-303v-244h127v-86h-504v86h127v244h-301v102h301v176h-301v97h258l-368 561h-97z" />
<glyph unicode="&#xa7;" horiz-adv-x="811" d="M6 -369l137 115q64 -82 110 -112.5t103 -30.5q230 0 230 336q0 187 -105 575q-75 283 -103 414t-28 194q0 57 14 97t54 92l84 -17q-10 -39 -10 -80q0 -125 55 -327l110 -408q76 -276 76 -504q0 -143 -31.5 -232t-109.5 -159q-62 -56 -116.5 -76t-143.5 -20 q-125 0 -186.5 27t-139.5 116zM84 1026q0 236 104 363t299 127q120 0 184.5 -29t141.5 -117l-139 -115q-32 63 -93 102.5t-124 39.5q-224 0 -224 -334q0 -185 103 -576q77 -289 105 -417t28 -191q0 -58 -14 -96.5t-54 -91.5l-84 16q11 54 11 80q0 121 -56 326l-110 409 q-78 283 -78 504z" />
<glyph unicode="&#xa8;" horiz-adv-x="831" d="M117 1171q0 51 34.5 86t84.5 35q51 0 85.5 -35t34.5 -86q0 -50 -34.5 -84t-85.5 -34q-50 0 -84.5 34.5t-34.5 83.5zM475 1171q0 51 34.5 86t84.5 35q51 0 86 -35t35 -86q0 -50 -35 -84t-86 -34q-50 0 -84.5 34.5t-34.5 83.5z" />
<glyph unicode="&#xa9;" horiz-adv-x="2048" d="M184 498q0 171 66.5 326t178.5 267.5t268 179t327 66.5t327 -66.5t268 -179t178.5 -267.5t66.5 -326t-66.5 -327t-178.5 -269t-268 -179.5t-327 -66.5t-327 66.5t-268 179.5t-178.5 269t-66.5 327zM315 498q0 -145 56 -276.5t151 -226.5t226.5 -151.5t275.5 -56.5 t275.5 56.5t226.5 151.5t151 226.5t56 276.5q0 144 -56 275t-151 226t-226.5 151t-275.5 56t-275.5 -56t-226.5 -151t-151 -226t-56 -275zM535 487q0 98 42 191.5t111.5 162.5t164 110.5t194.5 41.5q114 0 219 -55v57h100v-295h-102v142q-68 37 -108 50t-89 13 q-149 0 -248.5 -118t-99.5 -295q0 -186 105 -306t266 -120q46 0 84 13.5t94 51.5v145h102v-219q-113 -50 -177 -67t-138 -17q-227 0 -373.5 145t-146.5 369z" />
<glyph unicode="&#xaa;" horiz-adv-x="1783" d="M43 799v61l139 49v127q0 122 40 200.5t134 139.5q130 82 285 82q176 0 285 -67q80 66 154.5 94t172.5 28q95 0 171 -26.5t184 -95.5l-144 -177q-91 81 -137.5 116t-126.5 81q-76 -18 -112 -53t-50 -106t-14 -216v-129h383l141 37h76v-858h125v-86h-485v86h120v717h-360 v-717h119v-86h-479v86h118v717h-360v-717h121v-86h-482v86h121v713h-139zM422 907h360v168q0 78 21 137q-50 56 -97 90.5t-114 63.5q-41 -12 -65.5 -22t-45.5 -30t-31 -42.5t-17 -65t-9 -90.5t-2 -127v-82z" />
<glyph unicode="&#xab;" horiz-adv-x="1007" d="M4 459l561 393v-84l-243 -309l243 -309v-87zM444 459l562 393v-84l-244 -309l244 -309v-87z" />
<glyph unicode="&#xad;" horiz-adv-x="563" d="M66 354v230h426v-230h-426z" />
<glyph unicode="&#xae;" horiz-adv-x="2048" d="M184 469q0 171 66.5 327t178.5 269t268 179.5t327 66.5t327 -66.5t268 -179.5t178.5 -269t66.5 -327q0 -114 -30 -223t-84 -201t-131.5 -169.5t-169.5 -132t-201.5 -84.5t-223.5 -30t-223.5 30t-201.5 84.5t-169.5 132t-131.5 169.5t-84 201t-30 223zM315 469 q0 -115 36 -223.5t101.5 -195.5t152.5 -152.5t195.5 -101.5t223.5 -36t223.5 36t195.5 101.5t152.5 152.5t101.5 195.5t36 223.5q0 145 -56 276.5t-151 226.5t-226.5 151.5t-275.5 56.5t-275.5 -56.5t-226.5 -151.5t-151 -226.5t-56 -276.5zM608 0v76h144v803h-144v75h406 q173 0 262.5 -64.5t89.5 -189.5q0 -197 -223 -258l190 -325q23 -41 68 -41h67v-76h-237l-240 422h-96v-346h141v-76h-428zM895 506h125q86 0 138 49t52 131q0 184 -213 184h-102v-364z" />
<glyph unicode="&#xb0;" horiz-adv-x="681" d="M88 1112q0 107 75.5 182.5t182.5 75.5q98 0 169 -71t71 -169q0 -107 -75.5 -182.5t-182.5 -75.5q-100 0 -170 70t-70 170zM209 1120q0 -53 37.5 -91t89.5 -38q54 0 91.5 38t37.5 91q0 54 -37.5 91.5t-91.5 37.5q-53 0 -90 -37.5t-37 -91.5z" />
<glyph unicode="&#xb1;" horiz-adv-x="1126" d="M78 0v168h971v-168h-971zM78 532v168h401v320h168v-320h402v-168h-402v-319h-168v319h-401z" />
<glyph unicode="&#xb4;" horiz-adv-x="681" d="M125 1083l244 330h225l-326 -330h-143z" />
<glyph unicode="&#xb5;" horiz-adv-x="2048" d="M334 670l1425 745v-1493z" />
<glyph unicode="&#xb6;" horiz-adv-x="1318" d="M115 999q0 219 144.5 364.5t361.5 145.5h579l2 -112h-160v-1921h-129v1923h-122v-1923h-129v1026h-87q-117 0 -223.5 70.5t-171.5 186t-65 240.5z" />
<glyph unicode="&#xb7;" horiz-adv-x="970" d="M348 492q0 57 40 97t97 40t97.5 -40t40.5 -97t-40.5 -97.5t-97.5 -40.5t-97 40.5t-40 97.5z" />
<glyph unicode="&#xba;" horiz-adv-x="1773" d="M39 803v63l147 47v117q0 197 126.5 310.5t346.5 113.5q84 0 140.5 -14t113.5 -49q75 65 149.5 93.5t168.5 28.5q58 0 98 -7.5t109 -30.5l100 34h82v-1423h121l-2 -86h-479v86h120v717h-360v-717h121v-86h-482v86h121v717h-362v-717h121v-86h-482v86h121v717h-139z M418 907h362v170q0 71 17 140q-68 63 -111 93t-98 54q-72 -19 -107 -54.5t-49 -106t-14 -208.5v-88zM1020 907h360v375q-56 49 -88.5 71.5t-99.5 57.5q-79 -19 -113 -52t-46.5 -101.5t-12.5 -219.5v-131z" />
<glyph unicode="&#xbb;" horiz-adv-x="1024" d="M0 63v87l242 309l-242 309v84l561 -393zM440 63v87l244 309l-244 309v84l561 -393z" />
<glyph unicode="&#xbf;" horiz-adv-x="837" d="M117 117q0 148 76.5 236.5t203.5 88.5h97l36 187h88v-391h-339q-7 -38 -7 -66q0 -98 46 -180.5t126 -126.5q61 -34 105.5 -48.5t159.5 -39.5l-91 -262q-100 26 -153.5 52t-120.5 81q-106 89 -166.5 214t-60.5 255zM461 924q-1 49 33 84.5t84 35.5q49 0 82.5 -34t33.5 -82 q0 -49 -33.5 -84t-80.5 -35q-49 0 -84 34t-35 81z" />
<glyph unicode="&#xc0;" horiz-adv-x="1376" d="M0 0v86h127l528 1309h125l508 -1309h86v-86h-500v86h144l-127 332h-498l-133 -332h164v-86h-424zM346 1735h225l244 -330h-145zM442 543h402l-195 512z" />
<glyph unicode="&#xc1;" horiz-adv-x="1376" d="M0 0v86h127l528 1309h125l508 -1309h86v-86h-500v86h144l-127 332h-498l-133 -332h164v-86h-424zM442 543h402l-195 512zM465 1409l244 330h223l-324 -330h-143z" />
<glyph unicode="&#xc2;" horiz-adv-x="1376" d="M0 0v86h127l528 1309h125l508 -1309h86v-86h-500v86h144l-127 332h-498l-133 -332h164v-86h-424zM434 1436l230 338h122l222 -338h-107l-176 180l-174 -180h-117zM442 543h402l-195 512z" />
<glyph unicode="&#xc3;" horiz-adv-x="1376" d="M0 0v86h127l528 1309h125l508 -1309h86v-86h-500v86h144l-127 332h-498l-133 -332h164v-86h-424zM348 1579q72 86 132 123t126 37q62 0 96 -19l78 -49q55 -35 127 -35q50 0 75 13t77 65l59 -63q-73 -89 -133.5 -123.5t-140.5 -34.5q-91 0 -162 47q-53 36 -71 43.5 t-48 7.5q-41 0 -77 -17.5t-78 -60.5zM442 543h402l-195 512z" />
<glyph unicode="&#xc4;" horiz-adv-x="1376" d="M0 0v86h127l528 1309h125l508 -1309h86v-86h-500v86h144l-127 332h-498l-133 -332h164v-86h-424zM416 1487q0 50 35 85.5t86 35.5q49 0 83.5 -35.5t34.5 -85.5q0 -51 -34 -86t-84 -35q-51 0 -86 35t-35 86zM442 543h402l-195 512zM774 1487q0 50 35 85.5t86 35.5 q49 0 84 -35.5t35 -85.5q0 -51 -34.5 -86t-84.5 -35q-51 0 -86 35t-35 86z" />
<glyph unicode="&#xc5;" horiz-adv-x="1376" d="M0 0v86h127l528 1309h125l508 -1309h86v-86h-500v86h144l-127 332h-498l-133 -332h164v-86h-424zM442 543h402l-195 512zM537 1642q0 75 53 128t127 53q75 0 127.5 -53t52.5 -128q0 -74 -52.5 -127t-127.5 -53q-73 0 -126.5 53t-53.5 127zM623 1642q0 -38 28 -66t66 -28 q39 0 66.5 27.5t27.5 66.5q0 40 -27.5 68.5t-66.5 28.5q-38 0 -66 -28.5t-28 -68.5z" />
<glyph unicode="&#xc6;" horiz-adv-x="1806" d="M0 0v86h121l624 1176h-163v90h981v49h112v-328h-112v158h-428v-488h333v142h111v-404h-111v142h-333v-502h448l2 147h109v-268h-977v86h153v326h-446l-172 -326h158v-86h-410zM492 539h378v716z" />
<glyph unicode="&#xc7;" horiz-adv-x="1372" d="M84 668q0 202 93.5 362.5t260 250t375.5 89.5q97 0 171 -14.5t167 -52.5v83l111 3l2 -347l-111 -2l-2 113q-94 63 -149 83.5t-134 20.5q-222 0 -357.5 -157t-135.5 -414q0 -167 66.5 -302.5t184 -212.5t261.5 -77q69 0 123 16t145 64v156h113l2 -271q-231 -84 -404 -84 h-24l-90 -122q71 -8 112 -50t41 -106q0 -82 -76 -141.5t-180 -59.5q-72 0 -172 39l68 105q32 -34 52.5 -46t45.5 -12q43 0 72.5 31.5t29.5 75.5q0 116 -151 116h-10l135 179q-156 23 -238 58t-174 118q-223 198 -223 508z" />
<glyph unicode="&#xc8;" horiz-adv-x="1189" d="M102 0v86h156v1180h-156v86h844v57h111v-326h-109v148h-426v-483h328v139l111 2v-404l-111 -2v144h-328v-506h445v151h110v-272h-975zM176 1726h225l244 -329h-145z" />
<glyph unicode="&#xc9;" horiz-adv-x="1189" d="M102 0v86h156v1180h-156v86h844v57h111v-326h-109v148h-426v-483h328v139l111 2v-404l-111 -2v144h-328v-506h445v151h110v-272h-975zM391 1405l244 330h225l-325 -330h-144z" />
<glyph unicode="&#xca;" horiz-adv-x="1189" d="M102 0v86h156v1180h-156v86h844v57h111v-326h-109v148h-426v-483h328v139l111 2v-404l-111 -2v144h-328v-506h445v151h110v-272h-975zM289 1485l231 338h123l219 -338h-106l-174 180l-176 -180h-117z" />
<glyph unicode="&#xcb;" horiz-adv-x="1189" d="M102 0v86h156v1180h-156v86h844v57h111v-326h-109v148h-426v-483h328v139l111 2v-404l-111 -2v144h-328v-506h445v151h110v-272h-975zM254 1589q0 51 35.5 86t85.5 35t85.5 -35t35.5 -86q0 -49 -35.5 -84t-85.5 -35t-85.5 35t-35.5 84zM629 1589q0 51 35.5 86t85.5 35 q51 0 85.5 -35t34.5 -86q0 -50 -34.5 -84.5t-85.5 -34.5q-50 0 -85.5 35t-35.5 84z" />
<glyph unicode="&#xcc;" horiz-adv-x="761" d="M53 1735h226l243 -330h-145zM94 0v86h156v1180h-156v86h574v-86h-154v-1180h154v-86h-574z" />
<glyph unicode="&#xcd;" horiz-adv-x="761" d="M94 0v86h156v1180h-156v86h574v-86h-154v-1180h154v-86h-574zM229 1405l244 330h225l-325 -330h-144z" />
<glyph unicode="&#xce;" horiz-adv-x="761" d="M94 0v86h156v1180h-156v86h574v-86h-154v-1180h154v-86h-574zM96 1466l230 338h125l219 -338h-107l-176 181l-174 -181h-117z" />
<glyph unicode="&#xcf;" horiz-adv-x="761" d="M94 0v86h156v1180h-156v86h574v-86h-154v-1180h154v-86h-574zM94 1495q0 50 35 85.5t86 35.5q49 0 84 -35.5t35 -85.5q0 -51 -34.5 -86t-84.5 -35q-51 0 -86 35t-35 86zM453 1495q0 50 34.5 85.5t85.5 35.5q49 0 85 -36t36 -85q0 -51 -35.5 -86t-85.5 -35q-51 0 -85.5 35 t-34.5 86z" />
<glyph unicode="&#xd1;" horiz-adv-x="1509" d="M68 1266v86h407l664 -944v858h-162v86h463v-86h-172v-1289h-144l-712 1004v-895h161v-86h-462v86h170v1075l-66 105h-147zM352 1522q71 87 132 124t128 37q65 0 97 -18l77 -49q52 -35 125 -35q51 0 76 12.5t76 63.5l59 -64q-74 -88 -133 -121.5t-141 -33.5q-89 0 -160 47 q-55 36 -73 43.5t-48 7.5q-40 0 -75.5 -18t-79.5 -60z" />
<glyph unicode="&#xd2;" horiz-adv-x="1521" d="M86 676q0 144 53 274t143 223t215.5 148t264.5 55t264.5 -55t216 -148t144 -223t53.5 -274t-53.5 -274.5t-144 -224t-216 -149t-264.5 -55.5t-264.5 55.5t-215.5 149t-143 224t-53 274.5zM326 1733h225l244 -330h-144zM375 676q0 -153 53.5 -288.5t143 -216.5t190.5 -81 q102 0 192 81t143.5 216.5t53.5 288.5q0 152 -53.5 287t-144 216t-191.5 81t-190.5 -81t-143 -216t-53.5 -287z" />
<glyph unicode="&#xd3;" horiz-adv-x="1521" d="M86 676q0 144 53 274t143 223t215.5 148t264.5 55t264.5 -55t216 -148t144 -223t53.5 -274t-53.5 -274.5t-144 -224t-216 -149t-264.5 -55.5t-264.5 55.5t-215.5 149t-143 224t-53 274.5zM375 676q0 -153 53.5 -288.5t143 -216.5t190.5 -81q102 0 192 81t143.5 216.5 t53.5 288.5q0 152 -53.5 287t-144 216t-191.5 81t-190.5 -81t-143 -216t-53.5 -287zM518 1407l244 330h225l-325 -330h-144z" />
<glyph unicode="&#xd4;" horiz-adv-x="1521" d="M86 676q0 144 53 274t143 223t215.5 148t264.5 55t264.5 -55t216 -148t144 -223t53.5 -274t-53.5 -274.5t-144 -224t-216 -149t-264.5 -55.5t-264.5 55.5t-215.5 149t-143 224t-53 274.5zM375 676q0 -153 53.5 -288.5t143 -216.5t190.5 -81q102 0 192 81t143.5 216.5 t53.5 288.5q0 152 -53.5 287t-144 216t-191.5 81t-190.5 -81t-143 -216t-53.5 -287zM465 1468l231 338h123l219 -338h-106l-174 181l-176 -181h-117z" />
<glyph unicode="&#xd5;" horiz-adv-x="1521" d="M86 676q0 144 53 274t143 223t215.5 148t264.5 55t264.5 -55t216 -148t144 -223t53.5 -274t-53.5 -274.5t-144 -224t-216 -149t-264.5 -55.5t-264.5 55.5t-215.5 149t-143 224t-53 274.5zM375 676q0 -153 53.5 -288.5t143 -216.5t190.5 -81q102 0 192 81t143.5 216.5 t53.5 288.5q0 152 -53.5 287t-144 216t-191.5 81t-190.5 -81t-143 -216t-53.5 -287zM387 1540q71 87 132 124.5t128 37.5q62 0 96 -19l78 -49q55 -35 125 -35q51 0 76 12.5t78 63.5l57 -63q-74 -88 -133.5 -122t-138.5 -34q-91 0 -162 47q-55 36 -72.5 43.5t-46.5 7.5 q-42 0 -77.5 -17.5t-77.5 -59.5z" />
<glyph unicode="&#xd6;" horiz-adv-x="1521" d="M86 676q0 144 53 274t143 223t215.5 148t264.5 55t264.5 -55t216 -148t144 -223t53.5 -274t-53.5 -274.5t-144 -224t-216 -149t-264.5 -55.5t-264.5 55.5t-215.5 149t-143 224t-53 274.5zM348 1540q0 51 35.5 86t85.5 35q51 0 86 -35t35 -86q0 -50 -35 -84.5t-86 -34.5 q-50 0 -85.5 35t-35.5 84zM375 676q0 -153 53.5 -288.5t143 -216.5t190.5 -81q102 0 192 81t143.5 216.5t53.5 288.5q0 152 -53.5 287t-144 216t-191.5 81t-190.5 -81t-143 -216t-53.5 -287zM930 1540q0 51 35 86t86 35q50 0 84 -35t34 -86q0 -50 -34.5 -84.5t-83.5 -34.5 q-51 0 -86 34.5t-35 84.5z" />
<glyph unicode="&#xd8;" horiz-adv-x="1529" d="M72 -49l202 233q-190 190 -190 484q0 146 53 275.5t143.5 222t217.5 146.5t270 54q119 0 207 -31t205 -114l202 239l76 -67l-209 -236q193 -199 193 -487q0 -189 -90.5 -349.5t-246.5 -254t-339 -93.5q-231 0 -422 148l-199 -236zM371 670q0 -78 12 -138t49 -165l608 698 q-114 184 -276 184q-102 0 -193 -80.5t-145.5 -214.5t-54.5 -284zM481 274q134 -186 283 -186q99 0 189 81t144 215.5t54 283.5q0 81 -12 141.5t-49 165.5z" />
<glyph unicode="&#xd9;" horiz-adv-x="1597" d="M102 1266v86h574v-86h-154v-764q0 -155 32 -235.5t110 -121.5q76 -39 170 -39q184 0 286.5 104t102.5 292v762h-170v88h475v-86h-172v-770q0 -174 -62 -286t-192 -173q-140 -64 -297 -64q-249 0 -398 126.5t-149 338.5v828h-156zM416 1726h225l242 -329h-144z" />
<glyph unicode="&#xda;" horiz-adv-x="1597" d="M102 1266v86h574v-86h-154v-764q0 -155 32 -235.5t110 -121.5q76 -39 170 -39q184 0 286.5 104t102.5 292v762h-170v88h475v-86h-172v-770q0 -174 -62 -286t-192 -173q-140 -64 -297 -64q-249 0 -398 126.5t-149 338.5v828h-156zM653 1393l244 329h225l-325 -329h-144z " />
<glyph unicode="&#xdb;" horiz-adv-x="1597" d="M102 1266v86h574v-86h-154v-764q0 -155 32 -235.5t110 -121.5q76 -39 170 -39q184 0 286.5 104t102.5 292v762h-170v88h475v-86h-172v-770q0 -174 -62 -286t-192 -173q-140 -64 -297 -64q-249 0 -398 126.5t-149 338.5v828h-156zM567 1489l232 338h123l219 -338h-107 l-174 180l-176 -180h-117z" />
<glyph unicode="&#xdc;" horiz-adv-x="1597" d="M102 1266v86h574v-86h-154v-764q0 -155 32 -235.5t110 -121.5q76 -39 170 -39q184 0 286.5 104t102.5 292v762h-170v88h475v-86h-172v-770q0 -174 -62 -286t-192 -173q-140 -64 -297 -64q-249 0 -398 126.5t-149 338.5v828h-156zM424 1542q0 51 35.5 86t85.5 35t85.5 -35 t35.5 -86q0 -49 -35.5 -84t-85.5 -35t-85.5 35t-35.5 84zM961 1542q0 51 34.5 86t85.5 35q50 0 84.5 -35t34.5 -86q0 -50 -35 -84.5t-84 -34.5q-51 0 -85.5 34.5t-34.5 84.5z" />
<glyph unicode="&#xdf;" horiz-adv-x="1239" d="M45 803v65l143 45v166q0 189 124.5 311.5t316.5 122.5q178 0 299 -86.5t121 -214.5q0 -58 -29.5 -104t-95.5 -92l-121 -84q-88 -60 -88 -135q0 -58 45 -103t151 -92q149 -68 206 -135.5t57 -179.5q0 -144 -108 -229t-290 -85q-90 0 -153 22t-142 79l109 166 q85 -146 217 -146q66 0 112 34t46 85q0 38 -21.5 64t-77.5 57l-100 55q-140 77 -190 140t-50 163q0 83 36.5 154t129.5 170q68 71 89.5 108t21.5 82q0 64 -46.5 113t-154.5 96q-74 -21 -109 -57t-49 -106t-14 -210v-1042h-362v86h120v717h-143z" />
<glyph unicode="&#xe0;" horiz-adv-x="935" d="M35 211q0 91 51.5 153.5t146.5 84.5l299 67v217q0 78 -22.5 109.5t-77.5 31.5q-47 0 -102 -26v-103l-234 -57q-16 29 -16 57q0 94 97 150.5t257 56.5q165 0 251.5 -57.5t86.5 -167.5v-621h123v-67l-137 -43q-46 -14 -96 -14q-57 0 -86 26.5t-37 85.5q-51 -66 -107 -93.5 t-139 -27.5q-118 0 -188 64.5t-70 173.5zM135 1413h223l244 -330h-143zM268 233q0 -58 29.5 -95.5t75.5 -37.5q37 0 72.5 19.5t86.5 66.5v226l-264 -62v-117z" />
<glyph unicode="&#xe1;" horiz-adv-x="935" d="M35 211q0 91 51.5 153.5t146.5 84.5l299 67v217q0 78 -22.5 109.5t-77.5 31.5q-47 0 -102 -26v-103l-234 -57q-16 29 -16 57q0 94 97 150.5t257 56.5q165 0 251.5 -57.5t86.5 -167.5v-621h123v-67l-137 -43q-46 -14 -96 -14q-57 0 -86 26.5t-37 85.5q-51 -66 -107 -93.5 t-139 -27.5q-118 0 -188 64.5t-70 173.5zM260 1083l244 330h223l-324 -330h-143zM268 233q0 -58 29.5 -95.5t75.5 -37.5q37 0 72.5 19.5t86.5 66.5v226l-264 -62v-117z" />
<glyph unicode="&#xe2;" horiz-adv-x="935" d="M35 211q0 91 51.5 153.5t146.5 84.5l299 67v217q0 78 -22.5 109.5t-77.5 31.5q-47 0 -102 -26v-103l-234 -57q-16 29 -16 57q0 94 97 150.5t257 56.5q165 0 251.5 -57.5t86.5 -167.5v-621h123v-67l-137 -43q-46 -14 -96 -14q-57 0 -86 26.5t-37 85.5q-51 -66 -107 -93.5 t-139 -27.5q-118 0 -188 64.5t-70 173.5zM172 1083l229 338h123l221 -338h-106l-176 181l-174 -181h-117zM268 233q0 -58 29.5 -95.5t75.5 -37.5q37 0 72.5 19.5t86.5 66.5v226l-264 -62v-117z" />
<glyph unicode="&#xe3;" horiz-adv-x="935" d="M35 211q0 91 51.5 153.5t146.5 84.5l299 67v217q0 78 -22.5 109.5t-77.5 31.5q-47 0 -102 -26v-103l-234 -57q-16 29 -16 57q0 94 97 150.5t257 56.5q165 0 251.5 -57.5t86.5 -167.5v-621h123v-67l-137 -43q-46 -14 -96 -14q-57 0 -86 26.5t-37 85.5q-51 -66 -107 -93.5 t-139 -27.5q-118 0 -188 64.5t-70 173.5zM68 1141q72 87 132 124.5t128 37.5q64 0 94 -19l78 -49q55 -35 127 -35q49 0 73.5 12.5t77.5 63.5l60 -64q-73 -88 -133 -121.5t-142 -33.5q-91 0 -162 47q-53 36 -70.5 43.5t-47.5 7.5q-41 0 -76.5 -17.5t-79.5 -60.5zM268 233 q0 -58 29.5 -95.5t75.5 -37.5q37 0 72.5 19.5t86.5 66.5v226l-264 -62v-117z" />
<glyph unicode="&#xe4;" horiz-adv-x="935" d="M35 211q0 91 51.5 153.5t146.5 84.5l299 67v217q0 78 -22.5 109.5t-77.5 31.5q-47 0 -102 -26v-103l-234 -57q-16 29 -16 57q0 94 97 150.5t257 56.5q165 0 251.5 -57.5t86.5 -167.5v-621h123v-67l-137 -43q-46 -14 -96 -14q-57 0 -86 26.5t-37 85.5q-51 -66 -107 -93.5 t-139 -27.5q-118 0 -188 64.5t-70 173.5zM145 1174q0 51 35.5 85.5t85.5 34.5q51 0 86 -34.5t35 -85.5q0 -50 -35 -85.5t-86 -35.5q-50 0 -85.5 35.5t-35.5 85.5zM268 233q0 -58 29.5 -95.5t75.5 -37.5q37 0 72.5 19.5t86.5 66.5v226l-264 -62v-117zM504 1174 q0 51 35.5 85.5t85.5 34.5q51 0 85.5 -34.5t34.5 -85.5q0 -50 -34.5 -85.5t-85.5 -35.5q-49 0 -85 35.5t-36 85.5z" />
<glyph unicode="&#xe5;" horiz-adv-x="935" d="M35 211q0 91 51.5 153.5t146.5 84.5l299 67v217q0 78 -22.5 109.5t-77.5 31.5q-47 0 -102 -26v-103l-234 -57q-16 29 -16 57q0 94 97 150.5t257 56.5q165 0 251.5 -57.5t86.5 -167.5v-621h123v-67l-137 -43q-46 -14 -96 -14q-57 0 -86 26.5t-37 85.5q-51 -66 -107 -93.5 t-139 -27.5q-118 0 -188 64.5t-70 173.5zM264 1202q0 75 53 127.5t127 52.5q75 0 128 -52.5t53 -127.5q0 -74 -53 -127t-128 -53q-74 0 -127 53t-53 127zM268 233q0 -58 29.5 -95.5t75.5 -37.5q37 0 72.5 19.5t86.5 66.5v226l-264 -62v-117zM350 1202q0 -38 28 -66t66 -28 q40 0 68.5 28t28.5 66q0 39 -28.5 66.5t-68.5 27.5q-39 0 -66.5 -27.5t-27.5 -66.5z" />
<glyph unicode="&#xe6;" horiz-adv-x="1437" d="M43 211q0 89 55.5 155.5t143.5 79.5l299 50v235q0 78 -22.5 109.5t-76.5 31.5q-40 0 -104 -26v-103l-234 -57q-20 39 -20 62q0 91 102 146.5t267 55.5q93 0 152.5 -17.5t113.5 -60.5q77 42 134 58t128 16q181 0 290 -96t109 -256v-59l-618 -105q13 -155 97 -246.5 t210 -91.5q66 0 126 24t146 85l45 -92q-146 -87 -217.5 -111.5t-183.5 -24.5q-139 0 -225.5 38.5t-151.5 129.5q-75 -92 -143 -130t-156 -38q-123 0 -194.5 64.5t-71.5 173.5zM276 231q0 -54 31.5 -92.5t75.5 -38.5q38 0 76 23t104 86q-22 61 -22 129v53l-265 -45v-115z M760 535l366 65v59q0 95 -37 147t-106 52q-97 0 -158 -88t-65 -235z" />
<glyph unicode="&#xe7;" horiz-adv-x="884" d="M43 446q0 220 142.5 361t365.5 141q95 0 159 -19.5t148 -74.5l-131 -129q-55 52 -86 74t-100 59q-242 -108 -242 -364q0 -105 40.5 -199t107.5 -149.5t143 -55.5q50 0 94.5 16.5t122.5 63.5l53 -90q-114 -55 -164 -72.5t-135 -32.5l-92 -106q72 -2 120 -43t48 -102 q0 -91 -72.5 -148t-189.5 -57q-44 0 -73 4.5t-91 21.5l59 113q3 -4 8.5 -9t6.5 -7q28 -28 46 -36.5t48 -8.5q38 0 67 33t29 77t-45.5 76.5t-107.5 32.5h-19l150 159q-194 29 -302 153.5t-108 317.5z" />
<glyph unicode="&#xe8;" horiz-adv-x="944" d="M43 459q0 223 128.5 358t340.5 135q179 0 287 -101.5t108 -270.5v-78h-612q0 -190 80.5 -301t218.5 -111q57 0 106 20t168 91l47 -90q-152 -85 -230.5 -111.5t-184.5 -26.5q-205 0 -331 134t-126 352zM156 1413h225l244 -330h-144zM297 606h356v49q0 92 -40 150.5 t-103 58.5q-82 0 -141 -70.5t-72 -187.5z" />
<glyph unicode="&#xe9;" horiz-adv-x="944" d="M43 459q0 223 128.5 358t340.5 135q179 0 287 -101.5t108 -270.5v-78h-612q0 -190 80.5 -301t218.5 -111q57 0 106 20t168 91l47 -90q-152 -85 -230.5 -111.5t-184.5 -26.5q-205 0 -331 134t-126 352zM297 606h356v49q0 92 -40 150.5t-103 58.5q-82 0 -141 -70.5 t-72 -187.5zM319 1083l244 330h223l-323 -330h-144z" />
<glyph unicode="&#xea;" horiz-adv-x="944" d="M43 459q0 223 128.5 358t340.5 135q179 0 287 -101.5t108 -270.5v-78h-612q0 -190 80.5 -301t218.5 -111q57 0 106 20t168 91l47 -90q-152 -85 -230.5 -111.5t-184.5 -26.5q-205 0 -331 134t-126 352zM240 1083l229 338h125l219 -338h-106l-177 181l-174 -181h-116z M297 606h356v49q0 92 -40 150.5t-103 58.5q-82 0 -141 -70.5t-72 -187.5z" />
<glyph unicode="&#xeb;" horiz-adv-x="944" d="M43 459q0 223 128.5 358t340.5 135q179 0 287 -101.5t108 -270.5v-78h-612q0 -190 80.5 -301t218.5 -111q57 0 106 20t168 91l47 -90q-152 -85 -230.5 -111.5t-184.5 -26.5q-205 0 -331 134t-126 352zM203 1171q0 51 35.5 86t85.5 35q51 0 85.5 -35t34.5 -86 q0 -50 -34.5 -84t-85.5 -34q-50 0 -85.5 34.5t-35.5 83.5zM297 606h356v49q0 92 -40 150.5t-103 58.5q-82 0 -141 -70.5t-72 -187.5zM561 1171q0 51 35.5 86t85.5 35q51 0 86 -35t35 -86q0 -50 -35 -84t-86 -34q-50 0 -85.5 34.5t-35.5 83.5z" />
<glyph unicode="&#xec;" horiz-adv-x="577" d="M12 1413h226l243 -330h-145zM45 803v65l295 80h80v-862h121v-86h-482v86h121v717h-135z" />
<glyph unicode="&#xed;" horiz-adv-x="577" d="M45 803v65l295 80h80v-862h121v-86h-482v86h121v717h-135zM133 1083l244 330h223l-324 -330h-143z" />
<glyph unicode="&#xee;" horiz-adv-x="577" d="M18 1083l230 338h123l221 -338h-107l-176 181l-174 -181h-117zM45 803v65l295 80h80v-862h121v-86h-482v86h121v717h-135z" />
<glyph unicode="&#xef;" horiz-adv-x="577" d="M12 1171q0 51 35 86t86 35q50 0 85.5 -35t35.5 -86q0 -49 -35.5 -83.5t-85.5 -34.5q-51 0 -86 34t-35 84zM45 803v65l295 80h80v-862h121v-86h-482v86h121v717h-135zM328 1171q0 51 35 86t86 35q50 0 84 -35t34 -86q0 -49 -34.5 -83.5t-83.5 -34.5q-51 0 -86 34t-35 84z " />
<glyph unicode="&#xf1;" horiz-adv-x="1189" d="M45 803v65l295 80h90v-168q100 102 168 137t164 35q130 0 198 -65.5t68 -190.5v-610h121v-86h-481v86h120v571q0 92 -23.5 127t-86.5 35q-60 0 -104.5 -26t-143.5 -121v-586h119v-86h-481v86h120v717h-143zM199 1141q73 87 133.5 124.5t126.5 37.5q62 0 96 -19l78 -49 q55 -35 125 -35q51 0 75.5 12.5t77.5 63.5l58 -64q-73 -87 -133 -121t-140 -34q-90 0 -161 47q-55 36 -72.5 43.5t-46.5 7.5q-42 0 -78 -18t-78 -60z" />
<glyph unicode="&#xf2;" horiz-adv-x="1034" d="M43 463q0 213 133.5 351t339.5 138t340.5 -138t134.5 -351q0 -212 -134.5 -351t-340.5 -139q-205 0 -339 139t-134 351zM207 1413h225l244 -330h-144zM303 463q0 -170 59.5 -278.5t153.5 -108.5t153.5 108.5t59.5 278.5q0 172 -59.5 280.5t-153.5 108.5t-153.5 -108.5 t-59.5 -280.5z" />
<glyph unicode="&#xf3;" horiz-adv-x="1034" d="M43 463q0 213 133.5 351t339.5 138t340.5 -138t134.5 -351q0 -212 -134.5 -351t-340.5 -139q-205 0 -339 139t-134 351zM303 463q0 -170 59.5 -278.5t153.5 -108.5t153.5 108.5t59.5 278.5q0 172 -59.5 280.5t-153.5 108.5t-153.5 -108.5t-59.5 -280.5zM309 1083l244 330 h225l-325 -330h-144z" />
<glyph unicode="&#xf4;" horiz-adv-x="1034" d="M43 463q0 213 133.5 351t339.5 138t340.5 -138t134.5 -351q0 -212 -134.5 -351t-340.5 -139q-205 0 -339 139t-134 351zM231 1083l232 338h123l219 -338h-107l-174 181l-176 -181h-117zM303 463q0 -170 59.5 -278.5t153.5 -108.5t153.5 108.5t59.5 278.5 q0 172 -59.5 280.5t-153.5 108.5t-153.5 -108.5t-59.5 -280.5z" />
<glyph unicode="&#xf5;" horiz-adv-x="1034" d="M43 463q0 213 133.5 351t339.5 138t340.5 -138t134.5 -351q0 -212 -134.5 -351t-340.5 -139q-205 0 -339 139t-134 351zM131 1141q71 87 132 124.5t128 37.5q62 0 96 -19l78 -49q52 -35 125 -35q51 0 76 12.5t78 63.5l57 -64q-74 -88 -133 -121.5t-141 -33.5 q-89 0 -160 47q-55 36 -72.5 43.5t-46.5 7.5q-42 0 -77 -17.5t-78 -60.5zM303 463q0 -170 59.5 -278.5t153.5 -108.5t153.5 108.5t59.5 278.5q0 172 -59.5 280.5t-153.5 108.5t-153.5 -108.5t-59.5 -280.5z" />
<glyph unicode="&#xf6;" horiz-adv-x="1034" d="M43 463q0 213 133.5 351t339.5 138t340.5 -138t134.5 -351q0 -212 -134.5 -351t-340.5 -139q-205 0 -339 139t-134 351zM195 1171q0 50 34.5 84.5t85.5 34.5q49 0 84 -35t35 -84q0 -51 -34.5 -85.5t-84.5 -34.5q-51 0 -85.5 34.5t-34.5 85.5zM303 463q0 -170 59.5 -278.5 t153.5 -108.5t153.5 108.5t59.5 278.5q0 172 -59.5 280.5t-153.5 108.5t-153.5 -108.5t-59.5 -280.5zM553 1171q0 50 35 84.5t86 34.5q50 0 84.5 -35t34.5 -84q0 -51 -34.5 -85.5t-84.5 -34.5q-51 0 -86 34.5t-35 85.5z" />
<glyph unicode="&#xf7;" horiz-adv-x="1126" d="M51 401v168h1024v-168h-1024zM428 98q0 57 40 97.5t97 40.5t97 -40.5t40 -97.5t-40 -97t-97 -40t-97 40t-40 97zM430 874q0 57 40 97.5t97 40.5t97.5 -40.5t40.5 -97.5t-40.5 -97t-97.5 -40t-97 40t-40 97z" />
<glyph unicode="&#xf8;" horiz-adv-x="1038" d="M31 -20l131 147q-64 75 -92.5 155t-28.5 185q0 207 134 343t337 136q167 0 283 -84l135 160l76 -68l-136 -155q64 -73 93.5 -153t29.5 -181q0 -212 -135.5 -352t-341.5 -140q-161 0 -285 90l-127 -147zM301 465q0 -57 16 -156l361 412q-37 68 -73 96.5t-87 28.5 q-94 0 -155.5 -108.5t-61.5 -272.5zM352 199q44 -72 79 -98.5t85 -26.5q95 0 154 108t59 285q0 72 -14 154z" />
<glyph unicode="&#xf9;" horiz-adv-x="1167" d="M18 803v65l295 80h90v-669q0 -88 29 -128t92 -40q60 0 109 30.5t131 118.5v543h-105v74l271 71h74v-823h143v-68l-295 -73h-88v172q-103 -108 -171 -145.5t-161 -37.5q-132 0 -200 67t-68 198v565h-146zM195 1413h225l244 -330h-144z" />
<glyph unicode="&#xfa;" horiz-adv-x="1167" d="M18 803v65l295 80h90v-669q0 -88 29 -128t92 -40q60 0 109 30.5t131 118.5v543h-105v74l271 71h74v-823h143v-68l-295 -73h-88v172q-103 -108 -171 -145.5t-161 -37.5q-132 0 -200 67t-68 198v565h-146zM385 1083l242 330h225l-324 -330h-143z" />
<glyph unicode="&#xfb;" horiz-adv-x="1167" d="M18 803v65l295 80h90v-669q0 -88 29 -128t92 -40q60 0 109 30.5t131 118.5v543h-105v74l271 71h74v-823h143v-68l-295 -73h-88v172q-103 -108 -171 -145.5t-161 -37.5q-132 0 -200 67t-68 198v565h-146zM281 1083l229 338h125l219 -338h-106l-177 181l-174 -181h-116z " />
<glyph unicode="&#xfc;" horiz-adv-x="1167" d="M18 803v65l295 80h90v-669q0 -88 29 -128t92 -40q60 0 109 30.5t131 118.5v543h-105v74l271 71h74v-823h143v-68l-295 -73h-88v172q-103 -108 -171 -145.5t-161 -37.5q-132 0 -200 67t-68 198v565h-146zM229 1174q0 51 35.5 85.5t85.5 34.5t85.5 -34.5t35.5 -85.5 q0 -49 -35.5 -84t-85.5 -35t-85.5 35t-35.5 84zM635 1171q0 51 35.5 86t85.5 35q51 0 86 -35t35 -86q0 -50 -35 -84t-86 -34q-50 0 -85.5 34.5t-35.5 83.5z" />
<glyph unicode="&#xff;" horiz-adv-x="907" d="M0 842v86h432v-86h-106l202 -496l193 496h-129v86h315v-86h-84l-342 -889q-84 -223 -190 -367q-16 -24 -88 -110l-135 141q87 54 128.5 88.5t86.5 91.5q41 54 65.5 100t57.5 132l-332 813h-74zM162 1171q0 51 34.5 86t84.5 35q51 0 85.5 -35t34.5 -86q0 -50 -34.5 -84 t-85.5 -34q-50 0 -84.5 34.5t-34.5 83.5zM549 1171q0 51 35 86t86 35q50 0 84 -35t34 -86q0 -49 -34 -83.5t-84 -34.5q-51 0 -86 34t-35 84z" />
<glyph unicode="&#x152;" horiz-adv-x="1949" d="M84 676q0 187 91.5 348t247.5 255.5t337 94.5q28 0 102 -6q163 -16 228 -16h610v53h110v-328h-110v148h-428v-477h330v139h116v-406h-116v146h-330v-506h448v155h115v-276h-745q-99 0 -216 -16q-94 -11 -122 -11q-181 0 -335 94.5t-243.5 256.5t-89.5 352zM375 670 q0 -157 54 -290.5t146.5 -211.5t202.5 -78q129 0 179.5 37.5t50.5 132.5v852q0 69 -52.5 106t-152.5 37q-98 0 -166 -36.5t-131 -122.5q-131 -180 -131 -426z" />
<glyph unicode="&#x153;" horiz-adv-x="1593" d="M41 455q0 213 137 353t344 140q184 0 318 -119q81 65 151 92t166 27q180 0 294 -101t114 -261v-86h-623q8 -201 86.5 -306.5t220.5 -105.5q57 0 109 21.5t160 89.5l49 -84q-153 -88 -229 -115t-175 -27q-105 0 -183.5 28.5t-145.5 88.5q-137 -117 -318 -117 q-205 0 -340 137.5t-135 344.5zM305 461q0 -166 60 -275.5t151 -109.5q97 0 156 109t59 286q0 170 -57.5 273.5t-151.5 103.5q-95 0 -156 -109t-61 -278zM946 602h359v66q0 90 -39.5 141t-108.5 51q-85 0 -142 -69t-69 -189z" />
<glyph unicode="&#x178;" horiz-adv-x="1253" d="M-16 1266v86h573v-86h-151l290 -449l273 449h-174v86h477v-86h-148l-342 -561v-619h156v-86h-573v86h153v565l-405 615h-129zM311 1538q0 51 34.5 86t84.5 35q51 0 86 -35t35 -86q0 -50 -35 -84.5t-86 -34.5q-50 0 -84.5 34.5t-34.5 84.5zM776 1542q0 51 35 86t86 35 q50 0 84.5 -35t34.5 -86q0 -50 -35 -84.5t-84 -34.5q-51 0 -86 34.5t-35 84.5z" />
<glyph unicode="&#x2000;" horiz-adv-x="913" />
<glyph unicode="&#x2001;" horiz-adv-x="1827" />
<glyph unicode="&#x2002;" horiz-adv-x="913" />
<glyph unicode="&#x2003;" horiz-adv-x="1827" />
<glyph unicode="&#x2004;" horiz-adv-x="609" />
<glyph unicode="&#x2005;" horiz-adv-x="456" />
<glyph unicode="&#x2006;" horiz-adv-x="304" />
<glyph unicode="&#x2007;" horiz-adv-x="304" />
<glyph unicode="&#x2008;" horiz-adv-x="228" />
<glyph unicode="&#x2009;" horiz-adv-x="365" />
<glyph unicode="&#x200a;" horiz-adv-x="101" />
<glyph unicode="&#x2010;" horiz-adv-x="563" d="M66 354v230h426v-230h-426z" />
<glyph unicode="&#x2011;" horiz-adv-x="563" d="M66 354v230h426v-230h-426z" />
<glyph unicode="&#x2012;" horiz-adv-x="563" d="M66 354v230h426v-230h-426z" />
<glyph unicode="&#x2013;" horiz-adv-x="1126" d="M51 393v166h1024v-166h-1024z" />
<glyph unicode="&#x2014;" horiz-adv-x="2048" d="M0 391v168h2048v-168h-2048z" />
<glyph unicode="&#x2018;" d="M104 1022q0 169 222 354l84 -78q-71 -60 -101 -103.5t-30 -86.5q0 -44 23.5 -70t80.5 -45q-25 -63 -57 -89.5t-84 -26.5q-63 0 -100.5 39t-37.5 106z" />
<glyph unicode="&#x2019;" d="M88 956q70 58 100.5 103t30.5 88t-24 69.5t-80 43.5q25 64 56.5 90t84.5 26q63 0 100 -38.5t37 -104.5q0 -169 -221 -356z" />
<glyph unicode="&#x201a;" d="M94 -207q72 58 102.5 102.5t30.5 88.5q0 43 -24.5 69t-81.5 43q26 65 57.5 91t83.5 26q64 0 100.5 -38.5t36.5 -104.5q0 -170 -221 -357z" />
<glyph unicode="&#x201c;" horiz-adv-x="837" d="M113 1018q0 169 221 356l82 -80q-71 -59 -101 -102.5t-30 -87.5q0 -43 24.5 -68.5t81.5 -44.5q-26 -65 -57.5 -91t-83.5 -26q-64 0 -100.5 39t-36.5 105zM438 1018q0 169 221 356l82 -80q-71 -59 -101 -102.5t-30 -87.5q0 -42 25 -68t82 -45q-26 -65 -58 -91t-84 -26 q-64 0 -100.5 39t-36.5 105z" />
<glyph unicode="&#x201d;" horiz-adv-x="837" d="M90 956q70 58 100.5 103t30.5 88t-24 69.5t-80 43.5q25 64 56.5 90t84.5 26q63 0 100 -38.5t37 -104.5q0 -169 -221 -356zM416 956q70 58 100.5 103t30.5 88t-24 69.5t-81 43.5q25 64 57 90t85 26q63 0 100 -38.5t37 -104.5q0 -169 -221 -356z" />
<glyph unicode="&#x201e;" horiz-adv-x="837" d="M88 -207q70 58 100.5 102.5t30.5 88.5q0 43 -23.5 69t-80.5 43q25 64 56.5 90.5t84.5 26.5q63 0 100 -38.5t37 -104.5q0 -170 -221 -357zM414 -207q70 58 100.5 102.5t30.5 88.5q0 43 -24 69t-81 43q25 64 57 90.5t85 26.5q63 0 100 -38.5t37 -104.5q0 -170 -221 -357z " />
<glyph unicode="&#x2022;" horiz-adv-x="720" d="M35 473q0 135 95 230.5t230 95.5t230.5 -95.5t95.5 -230.5t-95.5 -230.5t-230.5 -95.5t-230 95.5t-95 230.5z" />
<glyph unicode="&#x2026;" horiz-adv-x="1536" d="M119 115q0 57 40 97t97 40t97 -40t40 -97t-40 -97.5t-97 -40.5t-97 40.5t-40 97.5zM647 115q0 57 40 97t97 40t98.5 -40t41.5 -97t-41.5 -97.5t-98.5 -40.5t-97 40.5t-40 97.5zM1159 115q0 57 40 97t97 40t97.5 -40t40.5 -97t-40.5 -97.5t-97.5 -40.5t-97 40.5t-40 97.5z " />
<glyph unicode="&#x202f;" horiz-adv-x="365" />
<glyph unicode="&#x2039;" horiz-adv-x="702" d="M55 459l561 393v-84l-243 -309l243 -309v-87z" />
<glyph unicode="&#x203a;" horiz-adv-x="681" d="M86 63v87l242 309l-242 309v84l561 -393z" />
<glyph unicode="&#x205f;" horiz-adv-x="456" />
<glyph unicode="&#x2122;" horiz-adv-x="2048" d="M176 1155v225h68v-28h516v28h67v-225h-67v127h-191v-534h129v-58h-393v58h127v534h-188v-127h-68zM899 690v58h119v544h-119v60h260l201 -418l194 418h301v-60h-129v-544h129v-58h-395v58h129v493l-252 -551l-250 541v-483h121v-58h-309z" />
<glyph unicode="&#xe000;" horiz-adv-x="931" d="M0 0v932h932v-932h-932z" />
<glyph unicode="&#xfb01;" horiz-adv-x="1181" d="M39 803v63l143 43l2 164q2 126 42 207t132 141q65 42 146 64q70 18 143 18q97 0 178 -25.5t181 -86.5l-144 -177q-127 110 -164 137t-102 58q-97 -19 -134.5 -70t-37.5 -165v-138l-2 -129h377l143 37h82v-858h123v-86h-485v86h120v717h-362v-717h119v-86h-482v86h121v717 h-139z" />
<glyph unicode="&#xfb02;" horiz-adv-x="1185" d="M37 803v61l145 49v166q0 186 133.5 307t337.5 121q55 0 94 -7.5t103 -31.5l98 41h80v-1423h121v-86h-485l2 86h122v717h-366v-717h119v-86h-482v86h123v717h-145zM422 907h366v363q-57 53 -90 75.5t-110 65.5q-39 -12 -63.5 -23t-44.5 -30t-30 -41t-17 -62t-9 -86 t-2 -120v-142z" />
</font>
</defs>
</svg>
