<?xml version="1.0" standalone="no"?>
<!DOCTYPE svg PUBLIC "-//W3C//DTD SVG 1.1//EN" "http://www.w3.org/Graphics/SVG/1.1/DTD/svg11.dtd" >
<svg xmlns="http://www.w3.org/2000/svg">
<metadata>
This is a custom SVG webfont generated by Font Squirrel.
Copyright   : Copr1993 Martin Majoor
</metadata>
<defs>
<font id="ScalaSansRegular" horiz-adv-x="1126" >
<font-face units-per-em="2048" ascent="1638" descent="-410" />
<missing-glyph horiz-adv-x="512" />
<glyph unicode=" "  horiz-adv-x="512" />
<glyph unicode="&#x09;" horiz-adv-x="512" />
<glyph unicode="&#xa0;" horiz-adv-x="512" />
<glyph unicode="!" horiz-adv-x="540" d="M164 90q0 47 34.5 82t82 35t82 -35t34.5 -82t-34.5 -82t-82 -35t-82 35t-34.5 82zM190 1507h181l-13 -1108h-155z" />
<glyph unicode="&#x22;" horiz-adv-x="843" d="M190 889v463h142v-463h-142zM512 889v463h141v-463h-141z" />
<glyph unicode="#" horiz-adv-x="1331" d="M113 438l20 117h238l55 266h-238l21 117h237l82 410h123l-80 -410h293l80 410h127l-80 -410h228l-21 -117h-229l-51 -266h233l-21 -117h-237l-84 -438h-127l84 438h-293l-88 -438h-125l88 438h-235zM496 555h292l54 266h-293z" />
<glyph unicode="$" horiz-adv-x="1093" d="M102 119l86 133q100 -66 154 -90q68 -29 176 -37v491l-84 50q-162 92 -225.5 168.5t-63.5 181.5q0 145 97.5 238.5t275.5 115.5l2 123h90v-121q127 -6 209 -31q68 -23 164 -79l-78 -140q-76 45 -141 70q-80 29 -154 33v-471q12 -8 43 -27q168 -98 211 -133 q106 -84 107 -242q0 -174 -123 -278q-47 -41 -96.5 -60.5t-141.5 -33.5v-121h-90l-2 114q-152 8 -242 45q-61 25 -174 101zM311 1028q0 -92 84 -147q74 -51 76 -54q43 -37 47 -28v424q-207 -37 -207 -195zM610 129q88 16 141.5 71.5t53.5 131.5q0 74 -19 100 q-14 23 -124 111q-33 27 -52 26v-440z" />
<glyph unicode="%" horiz-adv-x="1740" d="M70 1013.5q0 149.5 105.5 255t252.5 105.5q150 0 254 -105.5t104 -255t-104 -254t-254 -104.5q-147 0 -252.5 104.5t-105.5 254zM195 1014q0 -98 68.5 -167t164.5 -69q98 0 167 68.5t69 167.5q0 96 -69 165.5t-167 69.5q-96 0 -164.5 -69.5t-68.5 -165.5zM211 -90 l1171 1507h142l-1172 -1507h-141zM954 332q0 150 104.5 254t254.5 104q147 0 252.5 -104.5t105.5 -253.5q0 -147 -105.5 -253t-252.5 -106q-150 0 -254.5 106t-104.5 253zM1077 332q0 -96 68.5 -165t167.5 -69q96 0 164.5 69t68.5 165q0 98 -68.5 166.5t-164.5 68.5 q-98 0 -167 -68.5t-69 -166.5z" />
<glyph unicode="&#x26;" horiz-adv-x="1435" d="M37 342q0 106 55 192.5t199 202.5l88 72q-14 18 -40 52t-36 48q-109 143 -108 267q0 152 109.5 246t289.5 94q164 0 266.5 -81t102.5 -210q0 -141 -183 -279l-94 -69l-80 102l82 61q113 86 113 181q0 72 -59.5 117.5t-149.5 45.5q-100 0 -167 -56t-67 -142q0 -27 11 -62 q12 -47 33.5 -83.5t93.5 -137.5l393 -545q80 86 110.5 162t42.5 215h142q-12 -156 -47 -241q-41 -102 -170 -242q61 -78 102 -106.5t88 -28.5q49 0 91 33.5t104 123.5l100 -67q-63 -96 -111 -141q-88 -90 -204 -91q-53 0 -109 21q-70 29 -174 141q-94 -88 -188.5 -126 t-214.5 -38q-188 0 -301 100.5t-113 268.5zM205 360q0 -113 74.5 -179t201.5 -66q82 0 150 28q55 25 149 103l-325 454l-86 -69q-90 -72 -127 -133.5t-37 -137.5z" />
<glyph unicode="'" horiz-adv-x="514" d="M186 889v463h142v-463h-142z" />
<glyph unicode="(" horiz-adv-x="743" d="M266 436q0 324 140 658q57 139 80.5 180t74.5 90h154q-121 -145 -200 -407.5t-79 -526.5q0 -266 78 -526t201 -406h-154q-53 66 -78.5 112t-76.5 167q-140 329 -140 659z" />
<glyph unicode=")" horiz-adv-x="743" d="M45 -502q123 145 201 405.5t78 526.5q0 264 -79 526.5t-200 407.5h154q51 -51 74.5 -93t80.5 -177q139 -334 140 -658q0 -317 -140 -659q-47 -113 -73.5 -161t-81.5 -118h-154z" />
<glyph unicode="*" horiz-adv-x="1024" d="M51 965l45 139l326 -119l-39 -115zM184 561l213 270l99 -69l-193 -287zM442 1352h146l-15 -346h-118zM530 762l97 72l213 -273l-117 -86zM600 985l326 119l45 -139l-332 -95z" />
<glyph unicode="+" d="M78 426v117h428v428h115v-428h428v-117h-428v-426h-115v426h-428z" />
<glyph unicode="," horiz-adv-x="516" d="M125 168q55 37 119 37q117 0 116 -131q0 -57 -16 -109q-20 -76 -94 -213l-27 -49h-90q23 51 45 117q20 61 35 127z" />
<glyph unicode="-" horiz-adv-x="565" d="M86 389v156h391v-156h-391z" />
<glyph unicode="." horiz-adv-x="514" d="M141 92q0 47 34 81t83 34q47 0 81 -34t34 -81q0 -49 -34 -83t-81 -34q-49 0 -83 34t-34 83z" />
<glyph unicode="/" horiz-adv-x="837" d="M88 -502l516 1854h141l-516 -1854h-141z" />
<glyph unicode="0" horiz-adv-x="1167" d="M86 479q0 215 149.5 366.5t360.5 151.5t359.5 -151.5t148.5 -366.5q0 -213 -148.5 -364.5t-359.5 -151.5t-360.5 151.5t-149.5 364.5zM240 479q0 -162 104.5 -276.5t251.5 -114.5q145 0 249.5 114.5t104.5 276.5t-104.5 276.5t-249.5 114.5q-147 0 -251.5 -114.5 t-104.5 -276.5z" />
<glyph unicode="1" horiz-adv-x="798" d="M121 850v129h385v-979h-154v850h-231z" />
<glyph unicode="2" horiz-adv-x="1011" d="M86 0v78l475 411q102 86 103 199q0 76 -50.5 122t-130.5 46q-78 0 -135 -37q-41 -25 -145 -137l-105 78q96 113 148 151q104 82 253.5 82t236.5 -81t87 -218q0 -72 -24 -131q-18 -47 -55 -88t-138 -125l-264 -221h567v-129h-823z" />
<glyph unicode="3" horiz-adv-x="880" d="M70 -299q139 2 214.5 18.5t147.5 57.5q80 45 125 116.5t45 153.5q0 119 -74.5 182.5t-214.5 63.5h-102v113q158 35 242 110.5t84 181.5q0 74 -41 118t-111 44q-53 0 -99 -23.5t-126 -88.5l-90 102q41 37 77 61q125 84 267 84q125 0 198.5 -76.5t73.5 -203.5 q0 -213 -205 -316q78 -25 111 -43q162 -88 162 -295q0 -225 -172 -358t-461 -133h-51v131z" />
<glyph unicode="4" horiz-adv-x="1077" d="M14 0v39l721 952h72v-862h237v-129h-237v-430h-148v430h-645zM242 119l51 10h366l-2 500l5 63l-31 -61l-350 -469z" />
<glyph unicode="5" horiz-adv-x="845" d="M111 -309q158 10 249 37q109 35 167.5 115.5t58.5 197.5q0 158 -90 244q-72 66 -246 71l-100 4v619h555v-129h-408v-361l80 -6q170 -12 269 -127.5t99 -304.5q0 -121 -54 -223t-152 -166q-82 -53 -195 -76q-82 -16 -233 -24v129z" />
<glyph unicode="6" horiz-adv-x="1114" d="M139 545q0 365 197 614q168 213 457 213q45 0 133 -8v-127q-51 6 -109 6q-98 0 -166 -20q-111 -37 -205 -152q-66 -80 -96.5 -151.5t-58.5 -210.5q45 20 80 36.5t37 16.5q125 47 231 47q156 0 252 -105.5t96 -273.5q0 -205 -116.5 -339t-297.5 -134q-201 0 -317.5 158 t-116.5 430zM289 498q0 -180 80 -292t209 -112q117 0 195.5 92.5t78.5 227.5q0 115 -68.5 188.5t-175.5 73.5q-43 0 -121 -19q-86 -23 -196 -77q-2 -43 -2 -82z" />
<glyph unicode="7" horiz-adv-x="952" d="M86 838v141h799v-78l-297 -747q-43 -104 -107 -222q-96 -172 -227 -331l-119 100q70 80 82 98q152 195 244 432l233 607h-608z" />
<glyph unicode="8" horiz-adv-x="1021" d="M86 303q0 82 33 148q47 90 143 170l146 112l-134 113q-80 68 -107.5 115t-27.5 114q0 139 106.5 226.5t276.5 87.5q160 0 260.5 -79t100.5 -204q0 -139 -129 -244l-142 -114l168 -144q35 -27 70 -72q51 -59 68.5 -107t17.5 -120q0 -147 -123 -241.5t-317 -94.5 q-182 0 -296 92t-114 242zM248 319q0 -102 66.5 -158.5t187.5 -56.5q125 0 197.5 57.5t72.5 157.5q0 102 -133 222l-129 116l-129 -104q-133 -107 -133 -234zM299 1090q0 -88 100 -175l111 -92l113 92q96 80 96 191q0 74 -57.5 118t-155.5 44q-90 0 -148.5 -50t-58.5 -128z " />
<glyph unicode="9" horiz-adv-x="1114" d="M145 522q0 205 118 340t296 135q203 0 318.5 -157.5t115.5 -431.5q0 -365 -194 -613q-170 -215 -459 -215q-43 0 -131 8v129q66 -8 106 -8q100 0 168 23q104 33 205 149q66 80 96.5 152.5t57.5 212.5q-82 -41 -117 -53q-119 -49 -231 -50q-154 0 -251.5 105.5 t-97.5 273.5zM283 539q0 -115 68.5 -189t174.5 -74q39 0 121 19q92 25 195 78q2 43 2 82q0 182 -79 293.5t-210 111.5q-115 0 -193.5 -92t-78.5 -229z" />
<glyph unicode=":" horiz-adv-x="514" d="M141 92q0 47 34 81t83 34q47 0 81 -34t34 -81q0 -49 -34 -83t-81 -34q-49 0 -83 34t-34 83zM141 838q0 47 34 80.5t83 33.5q47 0 81 -33.5t34 -80.5q0 -49 -34 -83t-81 -34q-49 0 -83 34t-34 83z" />
<glyph unicode=";" horiz-adv-x="514" d="M125 168q55 37 119 37q117 0 116 -131q0 -47 -16 -109q-20 -76 -94 -213l-29 -49h-90q18 37 45 117q20 59 37 127zM143 838q0 47 34 80.5t81 33.5q49 0 83 -33.5t34 -80.5q0 -49 -34 -83t-83 -34q-47 0 -81 34t-34 83z" />
<glyph unicode="&#x3c;" d="M80 430v111l967 430v-129l-811 -357l811 -356v-129z" />
<glyph unicode="=" d="M51 274v117h1024v-117h-1024zM51 559v117h1024v-117h-1024z" />
<glyph unicode="&#x3e;" d="M80 0v129l811 356l-811 357v129l967 -430v-111z" />
<glyph unicode="?" horiz-adv-x="856" d="M172 1356l51 155q150 -31 232 -77q133 -76 213 -218.5t80 -302.5q0 -152 -86 -237q-43 -43 -77 -56.5t-104 -13.5h-104v-219h-154v361h309q55 80 56 161q0 178 -114 300t-302 147zM184 92q0 47 34 81t83 34q47 0 81 -34t34 -81q0 -49 -34 -83t-81 -34q-49 0 -83 34 t-34 83z" />
<glyph unicode="@" horiz-adv-x="2048" d="M203 446q0 379 241.5 621t620.5 242q346 0 567 -215t221 -551q0 -260 -137 -410.5t-375 -150.5q-213 0 -213 194q0 37 15 115l10 47q-92 -158 -208 -251t-220 -93q-61 0 -98 83t-37 220q0 289 139 485.5t342 196.5q45 0 123 -10q72 -12 186 -47l-106 -668q-8 -74 -8 -86 q0 -37 31.5 -61.5t78.5 -24.5q43 0 103 24q244 109 243 424q0 270 -189.5 458t-461.5 188q-317 0 -523 -205t-206 -520q0 -324 246 -517q176 -139 428 -139q164 0 315 68l47 -121q-47 -20 -67 -31q-127 -49 -299 -49t-293 40t-238 136q-278 225 -278 608zM752 291 q0 -127 63 -127q43 0 146 106q49 49 92 117q119 168 149 315l25 113q-98 33 -160 33q-131 0 -223 -164t-92 -393z" />
<glyph unicode="A" horiz-adv-x="1218" d="M16 0l504 1391h180l502 -1391h-180l-139 399h-547l-139 -399h-181zM389 553h440l-219 618z" />
<glyph unicode="B" horiz-adv-x="1210" d="M223 0v1352h439q178 0 270 -84q106 -100 106 -248q0 -109 -61.5 -192t-169.5 -119q135 -27 209 -118t74 -231q0 -162 -101.5 -261t-265.5 -99h-500zM391 141h232q156 0 217 52q72 61 71.5 180t-75 182t-213.5 63h-232v-477zM391 772h219q125 0 185 59q66 66 65 175 q0 100 -55 155q-47 49 -182 49h-232v-438z" />
<glyph unicode="C" horiz-adv-x="1239" d="M102 682q0 297 195 495.5t485 198.5q137 0 254 -45q70 -25 156 -84l-84 -127q-145 102 -332 103q-215 0 -353 -149.5t-138 -381.5q0 -256 143 -409.5t381 -153.5q158 0 311 64l47 -132q-102 -47 -182 -65q-92 -23 -186 -23q-305 0 -501 199t-196 510z" />
<glyph unicode="D" horiz-adv-x="1456" d="M223 0v1352h451q297 0 488.5 -188.5t191.5 -481.5q0 -279 -183 -485q-92 -106 -207.5 -151.5t-291.5 -45.5h-449zM391 141h256q133 0 216 29t149 94q74 78 120 193.5t46 226.5q0 225 -150.5 375.5t-380.5 150.5h-256v-1069z" />
<glyph unicode="E" horiz-adv-x="1103" d="M223 0v1352h760v-142h-592v-450h490v-142h-490v-477h610v-141h-778z" />
<glyph unicode="F" horiz-adv-x="1069" d="M223 0v1352h760v-142h-592v-462h490v-144h-490v-604h-168z" />
<glyph unicode="G" horiz-adv-x="1449" d="M102 678q0 301 203 498.5t512 197.5q162 0 281 -31q70 -18 164 -71l-64 -139q-16 10 -72 36q-127 53 -292 54q-143 0 -241.5 -41t-176.5 -131q-133 -156 -133 -361q0 -244 166.5 -404.5t420.5 -160.5q86 0 224 29v450h168v-553q-55 -20 -99 -33q-145 -45 -340 -45 q-305 0 -513 203t-208 502z" />
<glyph unicode="H" horiz-adv-x="1579" d="M223 0v1352h168v-580h797v580h168v-1352h-168v618h-797v-618h-168z" />
<glyph unicode="I" horiz-adv-x="614" d="M223 0v1352h168v-1352h-168z" />
<glyph unicode="J" horiz-adv-x="614" d="M12 -385q111 123 150 195q61 123 61 307v1235h168v-1391q-41 -139 -104 -242q-61 -96 -166 -196z" />
<glyph unicode="K" horiz-adv-x="1169" d="M223 0v1352h168v-1352h-168zM403 682l529 670h192l-528 -658l555 -694h-207z" />
<glyph unicode="L" horiz-adv-x="1013" d="M223 0v1352h168v-1211h604v-141h-772z" />
<glyph unicode="M" horiz-adv-x="1798" d="M223 0v1352h232l411 -1082q20 -59 27 -102q8 53 25 102l425 1082h232v-1352h-168v1184q-14 -74 -51 -166l-400 -1018h-153l-373 991q-35 82 -53 180v-1171h-154z" />
<glyph unicode="N" horiz-adv-x="1554" d="M223 0v1352h219l670 -1030q6 -8 18 -33l9 -19q8 -20 16 -43q0 -2 3 -9t5 -11v1145h168v-1364h-194l-682 1054q-18 31 -27 48q-16 27 -16 30q-10 18 -21 51v-1171h-168z" />
<glyph unicode="O" horiz-adv-x="1562" d="M102 676q0 303 192.5 501.5t487.5 198.5t486.5 -197.5t191.5 -502.5t-191.5 -504t-486.5 -199t-487.5 199t-192.5 504zM287 676q0 -229 145.5 -392t349.5 -163q203 0 348.5 162.5t145.5 392.5q0 227 -145.5 390t-348.5 163q-205 0 -350 -163t-145 -390z" />
<glyph unicode="P" horiz-adv-x="1138" d="M223 0v1352h424q123 0 198 -24.5t132 -82.5q104 -106 104 -293q0 -211 -129 -333.5t-352 -122.5q-51 0 -209 16v-512h-168zM391 653q113 -12 180 -12q111 0 177 27q74 31 116.5 104.5t42.5 169.5q0 135 -76 211q-57 57 -208 57h-232v-557z" />
<glyph unicode="Q" horiz-adv-x="1562" d="M102 676q0 305 191.5 502.5t488.5 197.5q295 0 486.5 -198.5t191.5 -503.5q0 -268 -154.5 -458.5t-410.5 -240.5q25 -31 68 -77q57 -57 110 -99q86 -68 240 -133l-94 -129q-162 84 -269 168q-121 94 -227 234l-29 34q-94 16 -155 35q-193 68 -315 254.5t-122 413.5z M285 676q0 -229 146.5 -392t351 -163t350 162.5t145.5 392.5q0 227 -145.5 390t-350 163t-351 -163t-146.5 -390z" />
<glyph unicode="R" horiz-adv-x="1196" d="M223 0v1352h412q123 0 191.5 -21.5t127.5 -79.5q106 -102 107 -264q0 -168 -119 -280q-74 -74 -205 -103l400 -604h-193l-373 580h-180v-580h-168zM391 721h219q270 0 271 264q0 129 -74 186q-31 25 -68 32t-129 7h-219v-489z" />
<glyph unicode="S" horiz-adv-x="1093" d="M102 119l86 133q96 -66 156 -88q92 -35 195 -35q121 0 188.5 54.5t67.5 150.5q0 61 -21 96q-35 66 -115 111q-6 4 -36.5 20.5t-82 43t-106.5 57.5q-152 82 -220.5 165.5t-68.5 188.5q0 162 123 260t324 98q127 0 227 -33q68 -23 164 -79l-78 -140q-88 51 -141 70 q-90 29 -186 29q-115 0 -187 -52.5t-72 -138.5q0 -76 63.5 -131t270.5 -166q143 -76 213 -137q104 -88 105 -246q0 -174 -120 -275.5t-325 -101.5q-137 0 -250 45q-61 25 -174 101z" />
<glyph unicode="T" horiz-adv-x="1103" d="M16 1210v142h1069v-142h-450v-1210h-168v1210h-451z" />
<glyph unicode="U" horiz-adv-x="1433" d="M188 463v889h168v-838q0 -127 14.5 -180t63.5 -107q104 -117 282.5 -116.5t282.5 116.5q49 53 63.5 106.5t14.5 180.5v838h168v-889q0 -135 -35.5 -221t-119.5 -156q-154 -125 -371 -125q-219 0 -373 125q-84 70 -121 157t-37 220z" />
<glyph unicode="V" horiz-adv-x="1193" d="M16 1352h181l399 -1055q10 -25 14 -66q0 31 13 66l385 1055h168l-525 -1387h-102z" />
<glyph unicode="W" horiz-adv-x="1769" d="M16 1352h181l413 -1116l213 555l-213 561h154l135 -355l137 355h140l-207 -537l221 -577l397 1114h166l-512 -1379h-104l-244 639l-246 -639h-90z" />
<glyph unicode="X" horiz-adv-x="1171" d="M16 0l473 690l-450 662h192l359 -521l354 521h191l-453 -664l471 -688h-192l-373 551l-377 -551h-195z" />
<glyph unicode="Y" d="M16 1352h181l362 -580l373 580h178l-475 -721v-631h-168v618z" />
<glyph unicode="Z" horiz-adv-x="1218" d="M86 0v78l782 1132h-782v142h1012v-90l-783 -1121h820v-141h-1049z" />
<glyph unicode="[" horiz-adv-x="512" d="M150 -502v1854h335v-115h-180v-1624h180v-115h-335z" />
<glyph unicode="\" horiz-adv-x="837" d="M88 1352h141l516 -1854h-141z" />
<glyph unicode="]" horiz-adv-x="512" d="M27 -387h180v1624h-180v115h335v-1854h-335v115z" />
<glyph unicode="^" horiz-adv-x="1069" d="M49 2l430 967h111l430 -967h-129l-356 809l-357 -809h-129z" />
<glyph unicode="_" horiz-adv-x="1024" d="M0 0h1024v-117h-1024v117z" />
<glyph unicode="`" horiz-adv-x="784" d="M180 1352h205l168 -334h-141z" />
<glyph unicode="a" horiz-adv-x="974" d="M111 219q0 209 206 258l322 76v168q0 115 -176 115q-141 0 -141 -80q0 -12 8 -35l-156 -33q-16 29 -16 57q0 92 92 149.5t242 57.5q139 0 221 -62.5t82 -168.5v-502v-67q6 -37 75 -50l-36 -129q-94 6 -134.5 35t-46.5 94q-63 -55 -98 -73q-92 -53 -197 -54 q-113 0 -180 66.5t-67 177.5zM264 233q0 -55 34 -87.5t91 -32.5q51 0 100.5 23.5t149.5 94.5v193l-348 -90q-27 -52 -27 -101z" />
<glyph unicode="b" horiz-adv-x="1079" d="M168 27v1466h154v-604q59 31 106 43q78 20 174 20q176 0 282.5 -122.5t106.5 -323.5q0 -242 -147.5 -387.5t-394.5 -145.5q-104 0 -187 21q-41 8 -94 33zM322 141q59 -29 135 -28q27 0 80 8q88 20 147 65q76 53 107.5 125t31.5 189q0 145 -71.5 226t-200.5 81 q-121 0 -229 -74v-592z" />
<glyph unicode="c" horiz-adv-x="909" d="M88 453q0 219 136 359t349 140q70 0 138 -18q76 -20 153 -76l-88 -125q-96 80 -209 80q-139 0 -225 -97.5t-86 -254.5q0 -160 87 -253t237 -93q121 0 223 78l80 -121q-45 -29 -62 -35q-117 -63 -258 -64q-211 0 -343 133.5t-132 346.5z" />
<glyph unicode="d" horiz-adv-x="1103" d="M88 438q0 223 133 368.5t340 145.5q137 0 221 -63v604h156v-1493h-156v117q-127 -143 -307 -144q-170 0 -278.5 130t-108.5 335zM254 440q0 -139 69.5 -230t178.5 -91q86 0 180 63q51 39 100 101v321q0 84 -18 123q-43 78 -186 78q-147 0 -235.5 -98.5t-88.5 -266.5z" />
<glyph unicode="e" horiz-adv-x="960" d="M88 463q0 221 120 355t318 134q162 0 260.5 -105.5t98.5 -279.5v-90h-635q0 -170 81 -266t222 -96q109 0 242 92l61 -121q-102 -66 -174 -89.5t-162 -23.5q-195 0 -313.5 135.5t-118.5 354.5zM262 592h455q-2 106 -53.5 163.5t-147.5 57.5q-201 0 -254 -221z" />
<glyph unicode="f" horiz-adv-x="577" d="M51 799v90l156 39v153q0 199 108.5 315.5t290.5 116.5q106 0 205 -45l-63 -129q-90 31 -152 31q-236 0 -236 -328v-114h220v-129h-220v-799h-153v799h-156z" />
<glyph unicode="g" horiz-adv-x="1038" d="M100 -295q0 39 29 96q35 66 123 160q-72 20 -102.5 46t-30.5 65q0 82 182 231q-178 96 -178 295q0 156 103.5 255t267.5 99q82 0 196 -39h141l168 15v-129h-194q55 -82 55 -193q0 -141 -107.5 -245.5t-252.5 -104.5q-4 0 -58 4q-2 0 -12 1t-18 1q-121 -100 -121 -139 q0 -33 78 -33h346q129 0 189.5 -52t60.5 -165q0 -164 -146.5 -277.5t-355.5 -113.5q-145 0 -254 66.5t-109 156.5zM260 -262q0 -51 61.5 -85t155.5 -34q141 0 250 70.5t109 165t-121 94.5h-346l-31 -47q-78 -121 -78 -164zM279 604q0 -96 60 -163.5t146 -67.5 q88 0 147.5 66.5t59.5 164.5q0 96 -60.5 164t-148.5 68q-84 0 -144 -68t-60 -164z" />
<glyph unicode="h" horiz-adv-x="1097" d="M160 0v1493h153v-760q80 90 125 127q111 92 250 92q244 0 244 -258v-694h-156v657q0 78 -14 109q-23 49 -92 49q-72 0 -155 -57.5t-202 -190.5v-567h-153z" />
<glyph unicode="i" horiz-adv-x="505" d="M154 1251q0 41 29.5 71t70.5 30t70.5 -30t29.5 -71t-29.5 -70.5t-70.5 -29.5t-70.5 29.5t-29.5 70.5zM176 0v928h154v-928h-154z" />
<glyph unicode="j" horiz-adv-x="501" d="M4 -438q84 115 119 188q49 98 49 238v940h154v-1082q-49 -119 -105 -208q-47 -80 -115 -162zM147 1253q0 41 30 71t71 30t70.5 -30t29.5 -71t-29.5 -70.5t-70.5 -29.5t-71 29.5t-30 70.5z" />
<glyph unicode="k" horiz-adv-x="929" d="M168 0v1493h154v-1493h-154zM326 504l383 424h200l-395 -426l397 -502h-202z" />
<glyph unicode="l" horiz-adv-x="489" d="M168 0v1493h154v-1493h-154z" />
<glyph unicode="m" horiz-adv-x="1734" d="M176 0v928h154v-195q74 84 127 127q109 92 248 92q227 0 241 -221q76 86 129 129q109 92 248 92q244 0 244 -258v-694h-154v657q0 76 -14 109q-27 49 -94 49q-125 0 -314 -203l-43 -45v-567h-153v657q0 76 -15 109q-27 49 -94 49q-72 0 -153.5 -57.5t-202.5 -190.5v-567 h-154z" />
<glyph unicode="n" horiz-adv-x="1116" d="M176 0v928h154v-195q74 84 127 127q109 92 248 92q244 0 243 -258v-694h-153v657q0 72 -15 109q-23 49 -94.5 49t-153 -57.5t-202.5 -190.5v-567h-154z" />
<glyph unicode="o" horiz-adv-x="1091" d="M88 463q0 201 135 345t323.5 144t323 -144t134.5 -345t-135.5 -345.5t-321.5 -144.5q-188 0 -323.5 144.5t-135.5 345.5zM256 462.5q0 -147.5 84 -249.5t207 -102q121 0 205 102t84 249.5t-84 250t-205 102.5q-123 0 -207 -102.5t-84 -250z" />
<glyph unicode="p" horiz-adv-x="1112" d="M176 -489v1417h154v-117q123 143 305 143q172 0 280.5 -130t108.5 -335q0 -223 -133 -368.5t-340 -145.5q-137 0 -221 64v-528h-154zM330 322q0 -86 18 -121q45 -80 187 -80q147 0 235 99t88 267q0 139 -69.5 230.5t-178.5 91.5q-86 0 -180 -64q-47 -35 -100 -102v-321z " />
<glyph unicode="q" horiz-adv-x="1064" d="M88 414q0 238 149.5 388t385.5 150q109 0 194 -20q43 -10 94 -33v-1388h-153v526q-61 -31 -107 -43q-74 -23 -174 -23q-174 0 -281.5 123t-107.5 320zM256 422q0 -143 72.5 -223t199.5 -80q119 0 230 71v592q-55 29 -140 29q-164 0 -263 -106.5t-99 -282.5z" />
<glyph unicode="r" horiz-adv-x="690" d="M176 0v928h154v-168q86 111 137 151.5t104 40.5q55 0 119 -63l-76 -129q-43 37 -65 37q-84 0 -219 -244v-553h-154z" />
<glyph unicode="s" horiz-adv-x="915" d="M121 63l63 130q61 -33 70 -37q109 -51 213 -52q72 0 118 35t46 88q0 37 -19 64q-29 41 -76 68.5t-169 78.5q-135 57 -188.5 112.5t-53.5 139.5q0 121 94 191.5t258 70.5q53 0 119 -10q86 -18 180 -70l-76 -124q-74 47 -133 61q-59 16 -106 16q-78 0 -125 -31.5t-47 -84.5 q0 -35 22 -58q29 -29 68 -49t162 -72q147 -61 199.5 -121.5t52.5 -168.5q0 -125 -86 -196t-238 -71q-59 0 -129 13q-104 20 -219 77z" />
<glyph unicode="t" horiz-adv-x="632" d="M31 799v90l155 39v270h154v-270h246v-129h-246v-529l2 -41q0 -8 1 -19t1 -16.5t1 -11.5t1 -10q2 -45 53 -45q47 0 136 66l63 -103q-82 -68 -130 -92.5t-103 -24.5q-80 0 -129.5 57.5t-49.5 149.5v619h-155z" />
<glyph unicode="u" horiz-adv-x="1107" d="M168 231v697h154v-658q0 -86 25.5 -123.5t84.5 -37.5q74 0 173.5 70.5t178.5 180.5v568h156v-928h-156v193q-160 -221 -368 -222q-248 0 -248 260z" />
<glyph unicode="v" horiz-adv-x="915" d="M35 928h168l256 -752l4 -37l2 35l252 754h168l-361 -955h-141z" />
<glyph unicode="w" horiz-adv-x="1368" d="M16 928h168l224 -740l2 -26l2 26l209 578l-62 162h162l246 -738l2 -28l2 28l231 738h154l-322 -955h-125l-209 580l-14 51l-12 -51l-219 -580h-129z" />
<glyph unicode="x" horiz-adv-x="823" d="M16 0l312 469l-312 459h191l205 -344l206 344h177l-308 -453l320 -475h-189l-212 346l-218 -346h-172z" />
<glyph unicode="y" horiz-adv-x="829" d="M16 928h172l224 -568l30 -90l21 90l190 568h158l-365 -979q-61 -166 -129 -273q-51 -84 -139 -194l-123 94q113 125 176 240q61 111 129 286z" />
<glyph unicode="z" horiz-adv-x="942" d="M66 0v78l567 713h-541v137h772v-66l-575 -725h575v-137h-798z" />
<glyph unicode="{" horiz-adv-x="837" d="M176 455v112h74q156 0 156 232v450q0 143 63 207t207 64h115v-129h-91q-78 0 -114 -62q-27 -39 -27 -145v-412q0 -70 -2 -92q-6 -59 -40 -103.5t-81 -54.5l-51 -12l49 -8q53 -10 90 -66q35 -55 35 -186v-414q0 -100 27 -143q16 -27 49 -44.5t65 -17.5h91v-129h-115 q-143 0 -206.5 62.5t-63.5 208.5v450q0 231 -156 232h-74z" />
<glyph unicode="|" horiz-adv-x="512" d="M188 -489v1982h144v-1982h-144z" />
<glyph unicode="}" horiz-adv-x="837" d="M55 -369h90q78 0 115 62q27 41 27 143v414q0 68 2 92q6 59 39.5 103t81.5 55l51 10l-49 10q-53 10 -90 66q-35 55 -35 186v412q0 102 -27 145q-16 27 -49 44.5t-66 17.5h-90v129h115q145 0 207.5 -63.5t62.5 -207.5v-450q0 -231 156 -232l74 -2v-110h-74 q-156 0 -156 -232v-450q0 -145 -62.5 -208t-207.5 -63h-115v129z" />
<glyph unicode="~" horiz-adv-x="1114" d="M16 455q82 68 160 98q92 37 166 37t164 -41l102 -45q86 -37 146 -37q63 0 131 22q57 20 133 76l67 -90q-82 -59 -153 -88q-98 -35 -187 -35q-66 0 -119 15.5t-149 60.5q-84 41 -145 41q-127 0 -256 -100z" />
<glyph unicode="&#xa1;" horiz-adv-x="540" d="M156 928q0 49 34.5 82.5t81.5 33.5t81 -33.5t34 -82.5q0 -47 -34 -81t-81 -34t-81.5 34t-34.5 81zM182 -487l13 1105h153l14 -1105h-180z" />
<glyph unicode="&#xa2;" horiz-adv-x="909" d="M88 453q0 213 134 357t333 144q20 0 35 -2l33 172h90l-33 -182q66 -16 98.5 -31.5t85.5 -52.5l-88 -125q-57 49 -125 70l-129 -682q35 -6 53 -6q125 0 228 78l80 -121q-90 -57 -168 -78t-166 -21q-6 0 -55 4l-33 -170h-90l35 189l-21 8q-104 43 -158 94 q-139 134 -139 355zM256 461q0 -176 102 -266q16 -16 76 -56l129 674q-4 0 -11 1t-9 1q-119 0 -203 -103.5t-84 -250.5z" />
<glyph unicode="&#xa3;" horiz-adv-x="1179" d="M0 -502l27 154q111 12 168 51q96 70 145 258l59 232h-258l39 116l258 25l205 735q49 174 75.5 230.5t86.5 107.5q109 92 274 92q100 0 153.5 -34.5t94.5 -125.5l-117 -77q-27 59 -54.5 76.5t-92.5 17.5q-98 0 -166 -74q-39 -39 -60.5 -87t-52.5 -165l-180 -696h387 l-51 -141h-387l-82 -304l-31 -92q-4 -14 -10 -29.5t-9 -23.5t-3 -10q-4 -4 -10.5 -18.5t-12.5 -24.5q23 4 49 4q31 0 54 -4q18 -2 42.5 -6t30.5 -4q2 0 16 -5l40 -12q27 -8 55 -16q72 -18 137 -19q106 0 107 78q0 23 -6 49q0 4 -4.5 22.5t-6.5 33.5l154 22q23 -104 22 -145 q0 -195 -270 -195q-94 0 -164 19l-141 32q-59 16 -143 17h-17q-63 0 -139 -15q-35 -10 -145 -34q-5 -3 -66 -15z" />
<glyph unicode="&#xa4;" horiz-adv-x="1157" d="M51 799v90l156 39v153q0 199 108.5 315.5t292.5 116.5q141 0 305 -98q72 53 130.5 73.5t138.5 20.5q86 0 209 -41l-64 -129q-12 2 -27.5 6.5t-19.5 4.5q-74 18 -104 18q-55 0 -99 -18q-76 -33 -106.5 -102.5t-30.5 -205.5v-114h219v-129h-219v-799h-156v799h-424v-799 h-153v799h-156zM360 928h424v153q0 117 45 222l-61 28q-100 39 -172 39q-236 0 -236 -328v-114z" />
<glyph unicode="&#xa5;" d="M16 1352h181l362 -580l373 580h178l-424 -643h285v-117h-336v-141h336v-117h-336v-334h-168v334h-334v117h334v141h-334v117h283z" />
<glyph unicode="&#xa7;" horiz-adv-x="811" d="M80 -371l108 88q59 -96 168 -96q106 0 168 88t62 240q0 145 -121 571q-131 475 -131 625q0 66 45 147l74 -28q-23 -47 -23 -84q0 -74 25 -164l149 -529q104 -367 105 -569q0 -188 -100.5 -302t-268.5 -114q-74 0 -131 19q-66 22 -129 108zM88 1087q0 188 100.5 302 t268.5 114q78 0 133 -20q59 -18 129 -107l-111 -88q-57 96 -166 96q-106 0 -167.5 -89t-61.5 -240q0 -143 119 -572q133 -467 133 -624q0 -68 -47 -146l-74 27q25 49 25 84q0 68 -27 164l-149 528q-105 381 -105 571z" />
<glyph unicode="&#xa8;" horiz-adv-x="831" d="M133 1171q0 43 31 74t74 31q41 0 71.5 -31t30.5 -74q0 -41 -30.5 -71.5t-71.5 -30.5q-43 0 -74 30.5t-31 71.5zM492 1171q0 43 30.5 74t73.5 31q41 0 71.5 -31t30.5 -74q0 -41 -30.5 -71.5t-71.5 -30.5q-43 0 -73.5 30.5t-30.5 71.5z" />
<glyph unicode="&#xa9;" horiz-adv-x="2066" d="M193 498q0 346 245.5 592.5t593.5 246.5t595 -245.5t247 -593.5t-247 -595t-595 -247t-593.5 247t-245.5 595zM324 498q0 -295 207.5 -503t500.5 -208q295 0 503 208t208 503q0 293 -208 500.5t-503 207.5q-293 0 -500.5 -207.5t-207.5 -500.5zM561 483 q0 217 143.5 357.5t366.5 140.5q76 0 146 -18q78 -20 161 -76l-94 -125q-98 80 -219 80q-145 0 -236.5 -97.5t-91.5 -255.5q0 -160 92.5 -253t249.5 -93q125 0 234 78l84 -119q-45 -29 -66 -36q-123 -63 -270 -64q-223 0 -361.5 133t-138.5 348z" />
<glyph unicode="&#xaa;" horiz-adv-x="1644" d="M51 799v90l156 39v153q0 201 106.5 316.5t292.5 115.5q143 0 309 -96q76 53 132.5 73.5t132.5 20.5q84 0 157 -24q63 -23 170 -84l-65 -129q-98 57 -154.5 76.5t-113.5 19.5q-233 0 -234 -328v-114h528v-928h-155v799h-373v-799h-156v799h-424v-799h-153v799h-156z M360 928h424v153q0 78 8.5 119t36.5 103l-81 36q-88 31 -154 31q-121 0 -177.5 -80t-56.5 -248v-114z" />
<glyph unicode="&#xab;" horiz-adv-x="1146" d="M82 463l463 387v-168l-271 -219l271 -219v-166zM571 463l463 387v-168l-270 -219l270 -219v-166z" />
<glyph unicode="&#xad;" horiz-adv-x="565" d="M86 389v156h391v-156h-391z" />
<glyph unicode="&#xae;" horiz-adv-x="2004" d="M162 498q0 348 246.5 593.5t595 245.5t594 -246.5t245.5 -592.5q0 -348 -245.5 -595t-594 -247t-595 247t-246.5 595zM293 498q0 -295 208 -503t503 -208q293 0 500.5 208t207.5 503q0 293 -208 500.5t-500 207.5q-295 0 -503 -207.5t-208 -500.5zM651 12v967h348 q188 0 275.5 -64.5t87.5 -207.5q0 -121 -68.5 -196t-191.5 -87l323 -412h-206l-297 400h-103v-400h-168zM819 528h156q221 0 221 174q0 94 -61 125q-49 23 -160 23h-156v-322z" />
<glyph unicode="&#xaf;" horiz-adv-x="831" d="M139 1104v129h559v-129h-559z" />
<glyph unicode="&#xb0;" horiz-adv-x="681" d="M88 1120.5q0 102.5 72.5 176t175.5 73.5q104 0 177 -73.5t73 -176t-73 -175.5t-177 -73q-102 0 -175 73t-73 175.5zM190 1120q0 -59 43 -102t103 -43q61 0 104 43t43 102q0 61 -43 104.5t-104 43.5q-59 0 -102.5 -43.5t-43.5 -104.5z" />
<glyph unicode="&#xb1;" d="M78 0v117h971v-117h-971zM78 510v115h428v346h115v-346h428v-115h-428v-346h-115v346h-428z" />
<glyph unicode="&#xb2;" horiz-adv-x="1011" d="M86 0v78l475 411q102 86 103 199q0 76 -50.5 122t-130.5 46q-78 0 -135 -37q-41 -25 -145 -137l-105 78q96 113 148 151q104 82 253.5 82t236.5 -81t87 -218q0 -72 -24 -131q-18 -47 -55 -88t-138 -125l-264 -221h567v-129h-823z" />
<glyph unicode="&#xb3;" horiz-adv-x="880" d="M70 -299q139 2 214.5 18.5t147.5 57.5q80 45 125 116.5t45 153.5q0 119 -74.5 182.5t-214.5 63.5h-102v113q158 35 242 110.5t84 181.5q0 74 -41 118t-111 44q-53 0 -99 -23.5t-126 -88.5l-90 102q41 37 77 61q125 84 267 84q125 0 198.5 -76.5t73.5 -203.5 q0 -213 -205 -316q78 -25 111 -43q162 -88 162 -295q0 -225 -172 -358t-461 -133h-51v131z" />
<glyph unicode="&#xb4;" horiz-adv-x="784" d="M334 1018l192 334h181l-232 -334h-141z" />
<glyph unicode="&#xb5;" horiz-adv-x="1269" d="M131 463l983 516l-2 -1030z" />
<glyph unicode="&#xb6;" horiz-adv-x="1318" d="M111 999q0 219 153 373q72 72 154 103.5t200 31.5h451v-1970h-117v1841h-141v-1841h-117v965h-102q-195 0 -338 148t-143 349z" />
<glyph unicode="&#xb7;" horiz-adv-x="514" d="M141 491.5q0 47.5 34 82t83 34.5q47 0 81 -34.5t34 -82t-34 -82t-81 -34.5q-49 0 -83 34.5t-34 82z" />
<glyph unicode="&#xb8;" horiz-adv-x="909" d="M287 -438l51 104q104 -45 158 -45q35 0 58.5 21.5t23.5 54.5q0 45 -31 64.5t-105 19.5h-65l117 192h102l-64 -114q72 0 112 -40t40 -116q0 -82 -55.5 -134t-139.5 -52q-67 0 -202 45z" />
<glyph unicode="&#xb9;" horiz-adv-x="798" d="M121 850v129h385v-979h-154v850h-231z" />
<glyph unicode="&#xba;" horiz-adv-x="1648" d="M51 799v90l156 39v153q0 190 113.5 310t293.5 120q90 0 162 -26q61 -25 139 -66q74 53 132.5 73.5t136.5 20.5q76 0 143 -20h154v-1493h-154v1339q-90 31 -151 31q-236 0 -236 -328v-114h256v-129h-256v-799h-156v799h-424v-799h-153v799h-156zM360 928h424v153 q0 84 8.5 122t38.5 93q-66 39 -96 50q-61 23 -131 22q-115 0 -179.5 -87t-64.5 -239v-114z" />
<glyph unicode="&#xbb;" horiz-adv-x="1146" d="M111 78v166l272 219l-272 219v168l464 -387zM600 78v166l270 219l-270 219v168l465 -387z" />
<glyph unicode="&#xbc;" horiz-adv-x="2557" d="M1495 0v39l721 952h72v-862h237v-129h-237v-430h-148v430h-645zM1723 119l51 10h366l-2 500l5 63l-31 -61l-350 -469zM899 225l271 451h196l-282 -451h-185zM121 850v129h385v-979h-154v850h-231z" />
<glyph unicode="&#xbd;" horiz-adv-x="2492" d="M1567 0v78l475 411q102 86 103 199q0 76 -50.5 122t-130.5 46q-78 0 -135 -37q-41 -25 -145 -137l-105 78q96 113 148 151q104 82 253.5 82t236.5 -81t87 -218q0 -72 -24 -131q-18 -47 -55 -88t-138 -125l-264 -221h567v-129h-823zM899 225l271 451h196l-282 -451h-185z M121 850v129h385v-979h-154v850h-231z" />
<glyph unicode="&#xbe;" horiz-adv-x="2639" d="M1577 0v39l721 952h72v-862h237v-129h-237v-430h-148v430h-645zM1805 119l51 10h366l-2 500l5 63l-31 -61l-350 -469zM981 225l271 451h196l-282 -451h-185zM70 -299q139 2 214.5 18.5t147.5 57.5q80 45 125 116.5t45 153.5q0 119 -74.5 182.5t-214.5 63.5h-102v113 q158 35 242 110.5t84 181.5q0 74 -41 118t-111 44q-53 0 -99 -23.5t-126 -88.5l-90 102q41 37 77 61q125 84 267 84q125 0 198.5 -76.5t73.5 -203.5q0 -213 -205 -316q78 -25 111 -43q162 -88 162 -295q0 -225 -172 -358t-461 -133h-51v131z" />
<glyph unicode="&#xbf;" horiz-adv-x="856" d="M154 109q0 152 86 235q43 43 76.5 56.5t103.5 13.5h104v221h154v-361h-311q-53 -78 -54 -163q0 -178 114 -300t302 -147l-51 -153q-141 27 -234 77q-133 76 -211.5 217.5t-78.5 303.5zM485 930q0 47 34 80.5t81 33.5q49 0 83 -33.5t34 -80.5q0 -49 -34 -83t-83 -34 q-47 0 -81 34t-34 83z" />
<glyph unicode="&#xc0;" horiz-adv-x="1218" d="M16 0l504 1391h180l502 -1391h-180l-139 399h-547l-139 -399h-181zM319 1706h181l194 -242h-141zM389 553h440l-219 618z" />
<glyph unicode="&#xc1;" horiz-adv-x="1218" d="M16 0l504 1391h180l502 -1391h-180l-139 399h-547l-139 -399h-181zM389 553h440l-219 618zM547 1464l194 242h181l-232 -242h-143z" />
<glyph unicode="&#xc2;" horiz-adv-x="1218" d="M16 0l504 1391h180l502 -1391h-180l-139 399h-547l-139 -399h-181zM322 1425l229 240h129l233 -240h-143l-156 138l-153 -138h-139zM389 553h440l-219 618z" />
<glyph unicode="&#xc3;" horiz-adv-x="1218" d="M16 0l504 1391h180l502 -1391h-180l-139 399h-547l-139 -399h-181zM238 1559q84 53 124 71q61 31 127 31q16 0 25 -2q33 -2 55.5 -12.5t104.5 -53.5q63 -35 106 -34q41 0 74 14t100 61l64 -82q-53 -51 -115 -75q-74 -33 -143 -33q-74 0 -178 55q-76 39 -115 39t-72 -16 q-37 -16 -92 -54zM389 553h440l-219 618z" />
<glyph unicode="&#xc4;" horiz-adv-x="1218" d="M16 0l504 1391h180l502 -1391h-180l-139 399h-547l-139 -399h-181zM315 1552q0 43 31 74t72 31q43 0 73.5 -31t30.5 -74q0 -41 -30.5 -71.5t-73.5 -30.5q-41 0 -72 30.5t-31 71.5zM389 553h440l-219 618zM694 1552q0 43 31 74t74 31t72.5 -31t29.5 -74q0 -41 -29.5 -71.5 t-72.5 -30.5t-74 30.5t-31 71.5z" />
<glyph unicode="&#xc5;" horiz-adv-x="1218" d="M16 0l504 1391h180l502 -1391h-180l-139 399h-547l-139 -399h-181zM389 553h440l-219 618zM451 1613.5q0 67.5 48 116t115.5 48.5t114.5 -48.5t47 -116t-47 -114.5t-114.5 -47t-115.5 47t-48 114.5zM528 1614q0 -35 26 -59.5t60.5 -24.5t59 24.5t24.5 59.5t-24.5 60.5 t-59 25.5t-60.5 -25.5t-26 -60.5z" />
<glyph unicode="&#xc6;" horiz-adv-x="1626" d="M-35 0l682 1352h105h759v-142h-602v-450h498v-142h-498v-477h615v-141h-772v399h-400l-192 -399h-195zM416 553h336v692z" />
<glyph unicode="&#xc7;" horiz-adv-x="1239" d="M102 682q0 297 195 495.5t485 198.5q137 0 254 -45q70 -25 156 -84l-84 -127q-145 102 -332 103q-215 0 -353 -149.5t-138 -381.5q0 -256 143 -409.5t381 -153.5q158 0 311 64l47 -132q-84 -39 -151 -57q-106 -27 -199 -27h-8l-74 -118h19q158 0 157 -156q0 -86 -57 -137 t-154 -51q-86 0 -219 47l51 104q104 -45 156 -45q37 0 60.5 21.5t23.5 54.5q0 45 -31.5 64.5t-105.5 19.5h-64l119 199q-115 18 -196 53q-180 82 -286 257t-106 392z" />
<glyph unicode="&#xc8;" horiz-adv-x="1103" d="M223 0v1352h760v-142h-592v-450h490v-142h-490v-477h610v-141h-778zM369 1706h180l192 -242h-141z" />
<glyph unicode="&#xc9;" horiz-adv-x="1103" d="M223 0v1352h760v-142h-592v-450h490v-142h-490v-477h610v-141h-778zM565 1464l195 242h180l-231 -242h-144z" />
<glyph unicode="&#xca;" horiz-adv-x="1103" d="M223 0v1352h760v-142h-592v-450h490v-142h-490v-477h610v-141h-778zM342 1425l227 240h129l236 -240h-146l-153 138l-156 -138h-137z" />
<glyph unicode="&#xcb;" horiz-adv-x="1103" d="M223 0v1352h760v-142h-592v-450h490v-142h-490v-477h610v-141h-778zM338 1559q0 43 30.5 72.5t73.5 29.5q41 0 72 -29.5t31 -72.5t-31 -74t-72 -31q-43 0 -73.5 31t-30.5 74zM719 1559q0 43 29.5 72.5t72.5 29.5t73 -29.5t30 -72.5t-30 -74t-73 -31t-72.5 31t-29.5 74z " />
<glyph unicode="&#xcc;" horiz-adv-x="614" d="M57 1706h181l192 -242h-141zM223 0v1352h168v-1352h-168z" />
<glyph unicode="&#xcd;" horiz-adv-x="614" d="M197 1464l192 242h180l-231 -242h-141zM223 0v1352h168v-1352h-168z" />
<glyph unicode="&#xce;" horiz-adv-x="614" d="M23 1425l229 240h129l233 -240h-143l-156 138l-153 -138h-139zM223 0v1352h168v-1352h-168z" />
<glyph unicode="&#xcf;" horiz-adv-x="614" d="M55 1552q0 43 30 74t73 31t72.5 -31t29.5 -74q0 -41 -29.5 -71.5t-72.5 -30.5t-73 30.5t-30 71.5zM223 0v1352h168v-1352h-168zM367 1552q0 43 29.5 74t72.5 31t72.5 -31t29.5 -74q0 -41 -29.5 -71.5t-72.5 -30.5t-72.5 30.5t-29.5 71.5z" />
<glyph unicode="&#xd1;" horiz-adv-x="1554" d="M223 0v1352h219l670 -1030q6 -8 18 -33l9 -19q8 -20 16 -43q0 -2 3 -9t5 -11v1145h168v-1364h-194l-682 1054q-18 31 -27 48q-16 27 -16 30q-10 18 -21 51v-1171h-168zM410 1540q84 53 125 72q61 31 127 30q16 0 24 -2q33 -2 55.5 -12t104.5 -53q63 -35 106 -35 q41 0 74 14.5t100 61.5l64 -82q-53 -51 -115 -76q-74 -33 -143 -33q-74 0 -178 56q-76 39 -115 39t-72 -17q-37 -16 -92 -53z" />
<glyph unicode="&#xd2;" horiz-adv-x="1562" d="M102 676q0 303 192.5 501.5t487.5 198.5t486.5 -197.5t191.5 -502.5t-191.5 -504t-486.5 -199t-487.5 199t-192.5 504zM287 676q0 -223 147.5 -384t348 -161t347 162t146.5 383t-146.5 383t-347 162t-348 -162t-147.5 -383zM467 1706h180l193 -242h-142z" />
<glyph unicode="&#xd3;" horiz-adv-x="1562" d="M102 676q0 303 192.5 501.5t487.5 198.5t486.5 -197.5t191.5 -502.5t-191.5 -504t-486.5 -199t-487.5 199t-192.5 504zM287 676q0 -223 147.5 -384t348 -161t347 162t146.5 383t-146.5 383t-347 162t-348 -162t-147.5 -383zM705 1464l192 242h180l-231 -242h-141z" />
<glyph unicode="&#xd4;" horiz-adv-x="1562" d="M102 676q0 303 192.5 501.5t487.5 198.5t486.5 -197.5t191.5 -502.5t-191.5 -504t-486.5 -199t-487.5 199t-192.5 504zM287 676q0 -223 147.5 -384t348 -161t347 162t146.5 383t-146.5 383t-347 162t-348 -162t-147.5 -383zM485 1425l230 240h129l235 -240h-145l-154 138 l-155 -138h-140z" />
<glyph unicode="&#xd5;" horiz-adv-x="1562" d="M102 676q0 303 192.5 501.5t487.5 198.5t486.5 -197.5t191.5 -502.5t-191.5 -504t-486.5 -199t-487.5 199t-192.5 504zM287 676q0 -223 147.5 -384t348 -161t347 162t146.5 383t-146.5 383t-347 162t-348 -162t-147.5 -383zM395 1532q84 53 125 72q61 31 127 30 q16 0 25 -2q33 -2 55.5 -12t103.5 -53q63 -35 107 -35q41 0 73.5 14.5t100.5 61.5l64 -82q-53 -51 -115 -76q-74 -33 -143 -33q-74 0 -179 56q-76 39 -114.5 38.5t-71.5 -16.5q-37 -16 -92 -53z" />
<glyph unicode="&#xd6;" horiz-adv-x="1562" d="M102 676q0 303 192.5 501.5t487.5 198.5t486.5 -197.5t191.5 -502.5t-191.5 -504t-486.5 -199t-487.5 199t-192.5 504zM287 676q0 -223 147.5 -384t348 -161t347 162t146.5 383t-146.5 383t-347 162t-348 -162t-147.5 -383zM475 1556q0 41 31 72t74 31q41 0 71.5 -31 t30.5 -72q0 -43 -30.5 -73.5t-71.5 -30.5q-43 0 -74 30.5t-31 73.5zM891 1556q0 41 29.5 72t72.5 31t73 -31t30 -72q0 -43 -30 -73.5t-73 -30.5t-72.5 30.5t-29.5 73.5z" />
<glyph unicode="&#xd8;" horiz-adv-x="1572" d="M70 -39l209 242q-98 141 -132 234t-34 229q0 313 191.5 511.5t492.5 198.5q117 0 190.5 -22.5t192.5 -91.5l12 -9l190 215l76 -65l-188 -215q201 -211 200 -512q0 -309 -192.5 -506t-495.5 -197q-131 0 -209.5 27t-201.5 113l-23 18l-203 -233zM297 680q0 -86 28.5 -179 t75.5 -157l676 774q-127 113 -291 113q-197 0 -343 -164t-146 -387zM467 266q166 -143 326 -143q201 0 347 164t146 387q0 102 -38 205.5t-101 171.5z" />
<glyph unicode="&#xd9;" horiz-adv-x="1433" d="M188 463v889h168v-838q0 -127 14.5 -180t63.5 -107q104 -117 282.5 -116.5t282.5 116.5q49 53 63.5 106.5t14.5 180.5v838h168v-889q0 -135 -35.5 -221t-119.5 -156q-154 -125 -371 -125q-219 0 -373 125q-84 70 -121 157t-37 220zM481 1706h181l194 -242h-141z" />
<glyph unicode="&#xda;" horiz-adv-x="1433" d="M188 463v889h168v-838q0 -127 14.5 -180t63.5 -107q104 -117 282.5 -116.5t282.5 116.5q49 53 63.5 106.5t14.5 180.5v838h168v-889q0 -135 -35.5 -221t-119.5 -156q-154 -125 -371 -125q-219 0 -373 125q-84 70 -121 157t-37 220zM635 1464l192 242h181l-232 -242h-141z " />
<glyph unicode="&#xdb;" horiz-adv-x="1433" d="M188 463v889h168v-838q0 -127 14.5 -180t63.5 -107q104 -117 282.5 -116.5t282.5 116.5q49 53 63.5 106.5t14.5 180.5v838h168v-889q0 -135 -35.5 -221t-119.5 -156q-154 -125 -371 -125q-219 0 -373 125q-84 70 -121 157t-37 220zM436 1425l230 240h129l235 -240h-145 l-154 138l-156 -138h-139z" />
<glyph unicode="&#xdc;" horiz-adv-x="1433" d="M188 463v889h168v-838q0 -127 14.5 -180t63.5 -107q104 -117 282.5 -116.5t282.5 116.5q49 53 63.5 106.5t14.5 180.5v838h168v-889q0 -135 -35.5 -221t-119.5 -156q-154 -125 -371 -125q-219 0 -373 125q-84 70 -121 157t-37 220zM422 1561q0 43 29.5 72.5t72.5 29.5 t73 -29.5t30 -72.5t-30 -73t-73 -30t-72.5 30t-29.5 73zM836 1561q0 43 29.5 72.5t72.5 29.5t72.5 -29.5t29.5 -72.5t-29.5 -73t-72.5 -30t-72.5 30t-29.5 73z" />
<glyph unicode="&#xdd;" d="M494 1499l192 334h181l-232 -334h-141zM16 1352h181l362 -580l373 580h178l-475 -721v-631h-168v618z" />
<glyph unicode="&#xdf;" horiz-adv-x="1179" d="M45 799v90l180 39v153q0 207 107.5 319.5t306.5 112.5q188 0 296.5 -86t108.5 -237q0 -92 -53 -163t-207 -181q-66 -49 -92 -85t-26 -77t45 -76t174 -94q102 -43 149 -78t76 -84q27 -49 27 -112q0 -121 -91.5 -194t-246.5 -73q-86 0 -150.5 20.5t-165.5 80.5l68 116 q84 -55 137 -74.5t117 -19.5q80 0 130 37t50 94q0 35 -16 62q-31 43 -90 71q-23 12 -140 68q-121 57 -171 113.5t-50 136.5t42 133t200 170q78 59 106.5 101t28.5 102q0 94 -70.5 149.5t-191.5 55.5q-76 0 -137 -31q-68 -35 -93.5 -101.5t-25.5 -214.5v-1042h-152v799h-180z " />
<glyph unicode="&#xe0;" horiz-adv-x="974" d="M111 219q0 209 206 258l322 76v168q0 115 -176 115q-141 0 -141 -80q0 -12 8 -35l-156 -33q-16 29 -16 57q0 92 92 149.5t242 57.5q139 0 221 -62.5t82 -168.5v-502v-67q6 -37 75 -50l-36 -129q-94 6 -134.5 35t-46.5 94q-63 -55 -98 -73q-92 -53 -197 -54 q-113 0 -180 66.5t-67 177.5zM254 1352h180l193 -334h-142zM264 233q0 -55 34 -87.5t91 -32.5q51 0 100.5 23.5t149.5 94.5v193l-348 -90q-27 -52 -27 -101z" />
<glyph unicode="&#xe1;" horiz-adv-x="974" d="M111 219q0 209 206 258l322 76v168q0 115 -176 115q-141 0 -141 -80q0 -12 8 -35l-156 -33q-16 29 -16 57q0 92 92 149.5t242 57.5q139 0 221 -62.5t82 -168.5v-502v-67q6 -37 75 -50l-36 -129q-94 6 -134.5 35t-46.5 94q-63 -55 -98 -73q-92 -53 -197 -54 q-113 0 -180 66.5t-67 177.5zM264 233q0 -55 34 -87.5t91 -32.5q51 0 100.5 23.5t149.5 94.5v193l-348 -90q-27 -52 -27 -101zM408 1018l192 334h180l-231 -334h-141z" />
<glyph unicode="&#xe2;" horiz-adv-x="974" d="M111 219q0 209 206 258l322 76v168q0 115 -176 115q-141 0 -141 -80q0 -12 8 -35l-156 -33q-16 29 -16 57q0 92 92 149.5t242 57.5q139 0 221 -62.5t82 -168.5v-502v-67q6 -37 75 -50l-36 -129q-94 6 -134.5 35t-46.5 94q-63 -55 -98 -73q-92 -53 -197 -54 q-113 0 -180 66.5t-67 177.5zM201 1018l229 334h129l236 -334h-146l-153 219l-156 -219h-139zM264 233q0 -55 34 -87.5t91 -32.5q51 0 100.5 23.5t149.5 94.5v193l-348 -90q-27 -52 -27 -101z" />
<glyph unicode="&#xe3;" horiz-adv-x="974" d="M111 219q0 209 206 258l322 76v168q0 115 -176 115q-141 0 -141 -80q0 -12 8 -35l-156 -33q-16 29 -16 57q0 92 92 149.5t242 57.5q139 0 221 -62.5t82 -168.5v-502v-67q6 -37 75 -50l-36 -129q-94 6 -134.5 35t-46.5 94q-63 -55 -98 -73q-92 -53 -197 -54 q-113 0 -180 66.5t-67 177.5zM113 1190q84 53 125 72q61 31 127 30q16 0 24 -2q33 -2 55.5 -12t104.5 -53q63 -35 106 -35q41 0 74 14.5t100 61.5l64 -82q-53 -51 -115 -76q-74 -33 -143 -33q-74 0 -178 55q-76 39 -115 39t-72 -16q-37 -16 -92 -53zM264 233q0 -55 34 -87.5 t91 -32.5q51 0 100.5 23.5t149.5 94.5v193l-348 -90q-27 -52 -27 -101z" />
<glyph unicode="&#xe4;" horiz-adv-x="974" d="M111 219q0 209 206 258l322 76v168q0 115 -176 115q-141 0 -141 -80q0 -12 8 -35l-156 -33q-16 29 -16 57q0 92 92 149.5t242 57.5q139 0 221 -62.5t82 -168.5v-502v-67q6 -37 75 -50l-36 -129q-94 6 -134.5 35t-46.5 94q-63 -55 -98 -73q-92 -53 -197 -54 q-113 0 -180 66.5t-67 177.5zM193 1174q0 43 30.5 73.5t73.5 30.5q41 0 71.5 -30.5t30.5 -73.5q0 -41 -30.5 -72t-71.5 -31q-43 0 -73.5 31t-30.5 72zM264 233q0 -55 34 -87.5t91 -32.5q51 0 100.5 23.5t149.5 94.5v193l-348 -90q-27 -52 -27 -101zM551 1174q0 43 30.5 73.5 t73.5 30.5q41 0 72 -30.5t31 -73.5q0 -41 -31 -72t-72 -31q-43 0 -73.5 31t-30.5 72z" />
<glyph unicode="&#xe5;" horiz-adv-x="974" d="M111 219q0 209 206 258l322 76v168q0 115 -176 115q-141 0 -141 -80q0 -12 8 -35l-156 -33q-16 29 -16 57q0 92 92 149.5t242 57.5q139 0 221 -62.5t82 -168.5v-502v-67q6 -37 75 -50l-36 -129q-94 6 -134.5 35t-46.5 94q-63 -55 -98 -73q-92 -53 -197 -54 q-113 0 -180 66.5t-67 177.5zM264 233q0 -55 34 -87.5t91 -32.5q51 0 100.5 23.5t149.5 94.5v193l-348 -90q-27 -52 -27 -101zM330 1200.5q0 67.5 48 115.5t115.5 48t114.5 -48t47 -115.5t-47 -115t-114.5 -47.5t-115.5 47.5t-48 115zM408 1200q0 -35 25.5 -59.5t60 -24.5 t59.5 24.5t25 59.5t-25 60.5t-59.5 25.5t-60 -25.5t-25.5 -60.5z" />
<glyph unicode="&#xe6;" horiz-adv-x="1513" d="M111 229q0 47 12 90q20 70 62 104t132 52l322 66v166q0 68 -38 97.5t-122 29.5q-158 0 -157 -80q0 -14 8 -33l-156 -33q-16 29 -16 57q0 92 92 149.5t242 57.5q115 0 180 -33.5t102 -111.5q29 37 47 53q98 92 266 92q150 0 250.5 -92t100.5 -229v-56l-631 -126 q2 -150 85 -242t216 -92q109 0 242 92l61 -121q-100 -63 -173 -88t-163 -25q-229 0 -348 187q-123 -102 -172 -131q-90 -53 -197 -54q-115 0 -181 67.5t-66 186.5zM264 242q0 -61 33 -95t92 -34q96 0 287 141q-23 61 -27 94l-8 55l-2 9l-348 -70q-27 -51 -27 -100zM807 578 l463 92q-29 154 -205 153q-242 1 -258 -245z" />
<glyph unicode="&#xe7;" horiz-adv-x="909" d="M88 455q0 219 136 358t349 139q70 0 138 -18q76 -20 153 -76l-88 -125q-96 80 -209 80q-139 0 -225 -97.5t-86 -254.5q0 -160 87 -253t237 -93q121 0 223 78l80 -121q-82 -51 -168 -78q-66 -18 -119 -21l-64 -114q72 0 112 -40t40 -116q0 -82 -55.5 -134t-139.5 -52 q-68 0 -202 45l51 104q104 -45 158 -45q35 0 58.5 21.5t23.5 54.5q0 45 -31 64.5t-105 19.5h-65l117 192q-406 95 -406 482z" />
<glyph unicode="&#xe8;" horiz-adv-x="960" d="M88 463q0 221 120 355t318 134q162 0 260.5 -105.5t98.5 -279.5v-90h-635q0 -170 81 -266t222 -96q109 0 242 92l61 -121q-102 -66 -174 -89.5t-162 -23.5q-195 0 -313.5 135.5t-118.5 354.5zM262 592h455q-2 106 -53.5 163.5t-147.5 57.5q-201 0 -254 -221zM293 1352 h180l193 -334h-142z" />
<glyph unicode="&#xe9;" horiz-adv-x="960" d="M88 463q0 221 120 355t318 134q162 0 260.5 -105.5t98.5 -279.5v-90h-635q0 -170 81 -266t222 -96q109 0 242 92l61 -121q-102 -66 -174 -89.5t-162 -23.5q-195 0 -313.5 135.5t-118.5 354.5zM262 592h455q-2 106 -53.5 163.5t-147.5 57.5q-201 0 -254 -221zM420 1018 l194 334h181l-232 -334h-143z" />
<glyph unicode="&#xea;" horiz-adv-x="960" d="M88 463q0 221 120 355t318 134q162 0 260.5 -105.5t98.5 -279.5v-90h-635q0 -170 81 -266t222 -96q109 0 242 92l61 -121q-102 -66 -174 -89.5t-162 -23.5q-195 0 -313.5 135.5t-118.5 354.5zM227 1018l232 334h129l231 -334h-141l-154 219l-155 -219h-142zM262 592h455 q-2 106 -53.5 163.5t-147.5 57.5q-201 0 -254 -221z" />
<glyph unicode="&#xeb;" horiz-adv-x="960" d="M88 463q0 221 120 355t318 134q162 0 260.5 -105.5t98.5 -279.5v-90h-635q0 -170 81 -266t222 -96q109 0 242 92l61 -121q-102 -66 -174 -89.5t-162 -23.5q-195 0 -313.5 135.5t-118.5 354.5zM242 1171q0 43 30.5 74t73.5 31q41 0 72 -31t31 -74q0 -41 -31 -71.5 t-72 -30.5q-43 0 -73.5 30.5t-30.5 71.5zM262 592h455q-2 106 -53.5 163.5t-147.5 57.5q-201 0 -254 -221zM600 1171q0 43 31 74t74 31q41 0 71.5 -31t30.5 -74q0 -41 -31 -71.5t-71 -30.5q-43 0 -74 30.5t-31 71.5z" />
<glyph unicode="&#xec;" horiz-adv-x="505" d="M-16 1352h180l192 -334h-141zM176 0v928h154v-928h-154z" />
<glyph unicode="&#xed;" horiz-adv-x="505" d="M164 1018l192 334h181l-232 -334h-141zM176 0v928h154v-928h-154z" />
<glyph unicode="&#xee;" horiz-adv-x="505" d="M-43 1018l231 334h129l232 -334h-141l-154 219l-156 -219h-141zM176 0v928h154v-928h-154z" />
<glyph unicode="&#xef;" horiz-adv-x="505" d="M-25 1174q0 43 31 73.5t74 30.5q41 0 71.5 -30.5t30.5 -73.5q0 -41 -30.5 -72t-71.5 -31q-43 0 -74 31t-31 72zM176 0v928h154v-928h-154zM334 1174q0 43 30.5 73.5t73.5 30.5q41 0 72 -30.5t31 -73.5q0 -41 -31 -72t-72 -31q-43 0 -73.5 31t-30.5 72z" />
<glyph unicode="&#xf1;" horiz-adv-x="1116" d="M176 0v928h154v-195q74 84 127 127q109 92 248 92q244 0 243 -258v-694h-153v657q0 72 -15 109q-23 49 -94.5 49t-153 -57.5t-202.5 -190.5v-567h-154zM186 1182q84 53 125 71q61 31 127 31q16 0 25 -2q33 -2 55.5 -12t104.5 -53q63 -35 106 -35q41 0 74 14t100 61 l64 -81q-53 -51 -115 -76q-74 -33 -143 -33q-74 0 -179 55q-76 39 -114.5 39t-71.5 -16q-37 -16 -92 -53z" />
<glyph unicode="&#xf2;" horiz-adv-x="1091" d="M88 463q0 201 135 345t323.5 144t323 -144t134.5 -345t-135.5 -345.5t-321.5 -144.5q-188 0 -323.5 144.5t-135.5 345.5zM256 462.5q0 -147.5 84 -249.5t207 -102q121 0 205 102t84 249.5t-84 250t-205 102.5q-123 0 -207 -102.5t-84 -250zM283 1352h180l207 -334h-142z " />
<glyph unicode="&#xf3;" horiz-adv-x="1091" d="M88 463q0 201 135 345t323.5 144t323 -144t134.5 -345t-135.5 -345.5t-321.5 -144.5q-188 0 -323.5 144.5t-135.5 345.5zM256 462.5q0 -147.5 84 -249.5t207 -102q121 0 205 102t84 249.5t-84 250t-205 102.5q-123 0 -207 -102.5t-84 -250zM463 1018l176 334h180 l-221 -334h-135z" />
<glyph unicode="&#xf4;" horiz-adv-x="1091" d="M88 463q0 201 135 345t323.5 144t323 -144t134.5 -345t-135.5 -345.5t-321.5 -144.5q-188 0 -323.5 144.5t-135.5 345.5zM256 462.5q0 -147.5 84 -249.5t207 -102q121 0 205 102t84 249.5t-84 250t-205 102.5q-123 0 -207 -102.5t-84 -250zM258 1018l231 334h129 l232 -334h-141l-156 219l-154 -219h-141z" />
<glyph unicode="&#xf5;" horiz-adv-x="1091" d="M88 463q0 201 135 345t323.5 144t323 -144t134.5 -345t-135.5 -345.5t-321.5 -144.5q-188 0 -323.5 144.5t-135.5 345.5zM139 1182q84 53 125 71q61 31 127 31q16 0 25 -2q33 -2 55.5 -12t103.5 -53q63 -35 107 -35q41 0 73.5 14t100.5 61l64 -81q-53 -51 -115 -76 q-74 -33 -143 -33q-74 0 -179 55q-76 39 -114.5 39t-71.5 -16q-37 -16 -92 -53zM256 462.5q0 -147.5 84 -249.5t207 -102q121 0 205 102t84 249.5t-84 250t-205 102.5q-123 0 -207 -102.5t-84 -250z" />
<glyph unicode="&#xf6;" horiz-adv-x="1091" d="M88 463q0 201 135 345t323.5 144t323 -144t134.5 -345t-135.5 -345.5t-321.5 -144.5q-188 0 -323.5 144.5t-135.5 345.5zM256 462.5q0 -147.5 84 -249.5t207 -102q121 0 205 102t84 249.5t-84 250t-205 102.5q-123 0 -207 -102.5t-84 -250zM272 1171q0 43 31 74t74 31 q41 0 71.5 -31t30.5 -74q0 -41 -30.5 -71.5t-71.5 -30.5q-43 0 -74 30.5t-31 71.5zM631 1171q0 43 30.5 74t73.5 31q41 0 72 -31t31 -74q0 -41 -31 -71.5t-72 -30.5q-43 0 -73.5 30.5t-30.5 71.5z" />
<glyph unicode="&#xf7;" d="M51 426v117h1024v-117h-1024zM446 98q0 49 35 84t86 35q49 0 84 -35t35 -84q0 -51 -35 -86t-84 -35q-51 0 -86 35t-35 86zM446 874q0 51 35 86t86 35q49 0 84 -34.5t35 -86.5q0 -49 -35 -83.5t-84 -34.5q-51 0 -86 34.5t-35 83.5z" />
<glyph unicode="&#xf8;" horiz-adv-x="1091" d="M61 -43l148 168q-133 143 -133 340t137 342t324 145q176 0 286 -110l146 168l61 -49l-149 -181q111 -135 110 -319q0 -201 -131 -344.5t-317 -143.5q-82 0 -135.5 18.5t-135.5 74.5l-8 6l-143 -168zM242 463q0 -111 65 -223l420 489q-74 86 -190 86q-121 0 -208 -103.5 t-87 -248.5zM362 178q88 -66 170 -65q119 0 206 108.5t87 259.5q0 84 -51 183z" />
<glyph unicode="&#xf9;" horiz-adv-x="1107" d="M168 231v697h154v-658q0 -86 25.5 -123.5t84.5 -37.5q74 0 173.5 70.5t178.5 180.5v568h156v-928h-156v193q-160 -221 -368 -222q-248 0 -248 260zM297 1352h180l193 -334h-142z" />
<glyph unicode="&#xfa;" horiz-adv-x="1107" d="M168 231v697h154v-658q0 -86 25.5 -123.5t84.5 -37.5q74 0 173.5 70.5t178.5 180.5v568h156v-928h-156v193q-160 -221 -368 -222q-248 0 -248 260zM463 1018l194 334h181l-234 -334h-141z" />
<glyph unicode="&#xfb;" horiz-adv-x="1107" d="M168 231v697h154v-658q0 -86 25.5 -123.5t84.5 -37.5q74 0 173.5 70.5t178.5 180.5v568h156v-928h-156v193q-160 -221 -368 -222q-248 0 -248 260zM258 1018l231 334h129l232 -334h-141l-156 219l-154 -219h-141z" />
<glyph unicode="&#xfc;" horiz-adv-x="1107" d="M168 231v697h154v-658q0 -86 25.5 -123.5t84.5 -37.5q74 0 173.5 70.5t178.5 180.5v568h156v-928h-156v193q-160 -221 -368 -222q-248 0 -248 260zM285 1171q0 43 30.5 74t73.5 31q41 0 72 -31t31 -74q0 -41 -31 -71.5t-72 -30.5q-43 0 -73.5 30.5t-30.5 71.5zM643 1171 q0 43 31 74t74 31q41 0 71.5 -31t30.5 -74q0 -41 -31 -71.5t-71 -30.5q-43 0 -74 30.5t-31 71.5z" />
<glyph unicode="&#xfd;" horiz-adv-x="829" d="M342 1075l192 334h181l-232 -334h-141zM16 928h172l224 -568l30 -90l21 90l190 568h158l-365 -979q-61 -166 -129 -273q-51 -84 -139 -194l-123 94q113 125 176 240q61 111 129 286z" />
<glyph unicode="&#xff;" horiz-adv-x="829" d="M16 928h172l224 -568l30 -90l21 90l190 568h158l-365 -979q-61 -166 -129 -273q-51 -84 -139 -194l-123 94q113 125 176 240q61 111 129 286zM139 1120q0 43 31 74t74 31q41 0 71.5 -31t30.5 -74q0 -41 -30.5 -71.5t-71.5 -30.5q-43 0 -74 30.5t-31 71.5zM498 1120 q0 43 30.5 74t73.5 31q41 0 72 -31t31 -74q0 -41 -31 -71.5t-72 -30.5q-43 0 -73.5 30.5t-30.5 71.5z" />
<glyph unicode="&#x152;" horiz-adv-x="1880" d="M102 676q0 293 189.5 497.5t462.5 204.5q84 0 237 -26h760v-142h-592v-450h490v-142h-490v-477h619v-141h-787q-156 -27 -237 -27q-274 0 -463 204t-189 499zM287 675.5q0 -231.5 147.5 -392t358.5 -160.5q96 0 198 45v1018q-109 43 -200 43q-211 0 -357.5 -161 t-146.5 -392.5z" />
<glyph unicode="&#x153;" horiz-adv-x="1710" d="M88 461q0 205 136 348t329 143q225 0 365 -204q31 39 59 71q113 125 301 125q162 0 259 -103.5t97 -273.5v-90h-630v-37q0 -145 82.5 -239.5t213.5 -94.5q57 0 113 19q70 23 131 82l66 -129q-115 -68 -181.5 -89.5t-156.5 -21.5q-78 0 -152 23q-68 23 -111.5 60.5 t-97.5 119.5q-141 -197 -364 -197q-190 0 -324.5 143.5t-134.5 344.5zM256 465q0 -156 80 -255t203 -99q125 0 211 100t86 245.5t-86 251t-205 105.5t-204 -101.5t-85 -246.5zM1018 592h450q-12 111 -61 163t-143 52q-98 0 -165 -58.5t-81 -156.5z" />
<glyph unicode="&#x178;" d="M16 1352h181l362 -580l373 580h178l-475 -721v-631h-168v618zM240 1552q0 41 29.5 72t72.5 31t73.5 -31t30.5 -72q0 -43 -30.5 -73.5t-73.5 -30.5t-72.5 30.5t-29.5 73.5zM653 1552q0 41 31 72t72 31q43 0 73.5 -31t30.5 -72q0 -43 -30.5 -73.5t-73.5 -30.5 q-41 0 -72 30.5t-31 73.5z" />
<glyph unicode="&#x2c6;" horiz-adv-x="692" d="M129 1018l227 334h129l236 -334h-146l-153 219l-156 -219h-137z" />
<glyph unicode="&#x2dc;" horiz-adv-x="929" d="M51 1184q84 53 125 71q61 31 127 31q16 0 25 -2q33 -2 55.5 -12t103.5 -53q63 -35 107 -35q41 0 73.5 14t100.5 62l63 -82q-53 -51 -114 -76q-74 -33 -144 -33q-74 0 -178 55q-76 39 -114.5 39t-71.5 -16q-37 -16 -92 -53z" />
<glyph unicode="&#x2000;" horiz-adv-x="915" />
<glyph unicode="&#x2001;" horiz-adv-x="1832" />
<glyph unicode="&#x2002;" horiz-adv-x="915" />
<glyph unicode="&#x2003;" horiz-adv-x="1832" />
<glyph unicode="&#x2004;" horiz-adv-x="610" />
<glyph unicode="&#x2005;" horiz-adv-x="456" />
<glyph unicode="&#x2006;" horiz-adv-x="305" />
<glyph unicode="&#x2007;" horiz-adv-x="305" />
<glyph unicode="&#x2008;" horiz-adv-x="227" />
<glyph unicode="&#x2009;" horiz-adv-x="366" />
<glyph unicode="&#x200a;" horiz-adv-x="100" />
<glyph unicode="&#x2010;" horiz-adv-x="565" d="M86 389v156h391v-156h-391z" />
<glyph unicode="&#x2011;" horiz-adv-x="565" d="M86 389v156h391v-156h-391z" />
<glyph unicode="&#x2012;" horiz-adv-x="565" d="M86 389v156h391v-156h-391z" />
<glyph unicode="&#x2013;" d="M51 426v117h1024v-117h-1024z" />
<glyph unicode="&#x2014;" horiz-adv-x="2048" d="M0 426v117h2048v-117h-2048z" />
<glyph unicode="&#x2018;" horiz-adv-x="516" d="M154 981q0 47 16 106q20 78 96 213l27 52h90q-23 -53 -45 -117q-27 -84 -35 -129l88 -219q-57 -37 -119 -37q-118 0 -118 131z" />
<glyph unicode="&#x2019;" horiz-adv-x="516" d="M125 1339q55 37 119 37q117 0 116 -131q0 -57 -16 -106q-20 -80 -94 -213l-27 -52h-90q27 61 45 117q20 63 35 129z" />
<glyph unicode="&#x201a;" horiz-adv-x="516" d="M125 168q55 37 119 37q117 0 116 -131q0 -57 -16 -109q-20 -76 -94 -213l-27 -49h-90q23 51 45 117q20 61 35 127z" />
<glyph unicode="&#x201c;" horiz-adv-x="894" d="M154 983q0 150 135 369h104q-33 -51 -59 -125q-18 -55 -31 -121l90 -219q-70 -35 -121 -35q-118 0 -118 131zM530 983q0 152 136 369h104q-37 -55 -59 -125q-18 -53 -31 -121l90 -219q-72 -35 -121 -35q-119 0 -119 131z" />
<glyph unicode="&#x201d;" horiz-adv-x="894" d="M125 877q35 55 59 124q18 53 31 121l-90 219q72 35 121 35q117 0 116 -131q0 -156 -135 -368h-102zM502 877q35 51 59 124q16 61 31 121l-90 219q68 35 121 35q117 0 116 -131q0 -156 -135 -368h-102z" />
<glyph unicode="&#x201e;" horiz-adv-x="894" d="M125 168q72 37 121 37q117 0 116 -133q0 -158 -135 -367h-102q33 51 59 123q18 59 31 121zM502 168q72 37 121 37q117 0 116 -133q0 -154 -135 -367h-102q35 53 59 123q14 51 31 121z" />
<glyph unicode="&#x2022;" horiz-adv-x="720" d="M121 473q0 100 69.5 170t170 70t170 -70t69.5 -170t-69.5 -170t-170 -70t-170 70t-69.5 170z" />
<glyph unicode="&#x2026;" horiz-adv-x="1536" d="M139 92q0 49 35 83t82 34t81 -34t34 -83q0 -47 -34 -81t-81 -34t-82 34t-35 81zM670 92q0 49 33.5 83t80.5 34q49 0 83 -34t34 -83q0 -47 -33.5 -81t-83.5 -34q-47 0 -80.5 34t-33.5 81zM1182 92q0 49 33.5 83t80.5 34q49 0 83 -34t34 -83q0 -47 -33.5 -81t-83.5 -34 q-47 0 -80.5 34t-33.5 81z" />
<glyph unicode="&#x202f;" horiz-adv-x="366" />
<glyph unicode="&#x2039;" horiz-adv-x="657" d="M82 463l463 387v-168l-271 -219l271 -219v-166z" />
<glyph unicode="&#x203a;" horiz-adv-x="657" d="M111 78v166l272 219l-272 219v168l464 -387z" />
<glyph unicode="&#x2044;" horiz-adv-x="681" d="M100 225l271 451h196l-282 -451h-185z" />
<glyph unicode="&#x205f;" horiz-adv-x="456" />
<glyph unicode="&#x2122;" horiz-adv-x="1767" d="M94 1237v115h553v-115h-207v-543h-141v543h-205zM788 694v658h232l168 -490l12 -51h14l13 51l168 490h217v-658h-127v555h-15l-12 -90l-168 -465h-180l-154 453l-12 90h-14v-543h-142z" />
<glyph unicode="&#xe000;" horiz-adv-x="930" d="M0 930h930v-930h-930v930z" />
<glyph unicode="&#xfb01;" horiz-adv-x="1017" d="M51 799v90l156 39v153q0 197 108.5 314.5t288.5 117.5q80 0 154 -24q66 -23 170 -86l-66 -129q-156 98 -268 98q-233 0 -234 -330v-114h529v-928h-156v799h-373v-799h-153v799h-156z" />
<glyph unicode="&#xfb02;" horiz-adv-x="1069" d="M51 799v90l156 39v153q0 199 108.5 315.5t290.5 116.5q72 0 142 -20h153v-1493h-153v1339q-90 31 -152 31q-236 0 -236 -328v-114h256v-129h-256v-799h-153v799h-156z" />
<glyph unicode="&#xfb03;" horiz-adv-x="1660" d="M1309 1251q0 41 29.5 71t70.5 30t70.5 -30t29.5 -71t-29.5 -70.5t-70.5 -29.5t-70.5 29.5t-29.5 70.5zM1331 0v928h154v-928h-154zM629 799v90l156 39v153q0 199 108.5 315.5t290.5 116.5q106 0 205 -45l-63 -129q-90 31 -152 31q-236 0 -236 -328v-114h220v-129h-220 v-799h-153v799h-156zM51 799v90l156 39v153q0 199 108.5 315.5t290.5 116.5q106 0 205 -45l-63 -129q-90 31 -152 31q-236 0 -236 -328v-114h220v-129h-220v-799h-153v799h-156z" />
<glyph unicode="&#xfb04;" horiz-adv-x="1644" d="M1323 0v1493h154v-1493h-154zM629 799v90l156 39v153q0 199 108.5 315.5t290.5 116.5q106 0 205 -45l-63 -129q-90 31 -152 31q-236 0 -236 -328v-114h220v-129h-220v-799h-153v799h-156zM51 799v90l156 39v153q0 199 108.5 315.5t290.5 116.5q106 0 205 -45l-63 -129 q-90 31 -152 31q-236 0 -236 -328v-114h220v-129h-220v-799h-153v799h-156z" />
</font>
</defs>
</svg>
